<svg viewBox="0 0 29 29" fill="none" xmlns="http://www.w3.org/2000/svg">
  <path
    d="M15.9718 20.2029C15.9718 21.4626 15.9817 22.7216 15.968 23.9806C15.9595 24.7328 15.9343 24.7588 15.2119 24.7802C14.3726 24.8046 13.5325 24.8008 12.6924 24.8024C11.9747 24.8031 11.9196 24.768 11.9127 24.0303C11.8959 22.3165 11.902 20.6019 11.9036 18.8881C11.9036 18.0831 11.9273 17.279 11.9189 16.4741C11.9112 15.7746 11.8363 15.6966 11.13 15.6966C10.5001 15.6966 9.87022 15.731 9.24111 15.7677C8.75494 15.7968 8.5432 15.6187 8.56613 15.1027C8.60588 14.1946 8.60588 13.2842 8.59671 12.3745C8.59288 11.9732 8.74194 11.8058 9.14708 11.8188C9.77696 11.8394 10.4068 11.8371 11.0367 11.8348C11.8592 11.8325 11.873 11.8287 11.8921 11.0398C11.9135 10.1653 11.8867 9.29009 11.9158 8.41636C11.9777 6.54584 12.8522 5.16607 14.4873 4.26024C15.0186 3.96594 15.5865 3.82605 16.1927 3.80771C17.1367 3.78019 18.0808 3.71827 19.0248 3.70986C19.9276 3.70222 19.9307 3.72362 19.9376 4.66767C19.9429 5.36711 19.9192 6.06808 19.9452 6.76676C19.9635 7.25216 19.7946 7.48072 19.2886 7.46008C18.7993 7.4402 18.3071 7.43638 17.8194 7.46696C16.6231 7.54264 16.0475 8.12359 15.984 9.32525C15.9527 9.91844 15.9909 10.5154 15.9595 11.1086C15.9297 11.6735 16.1973 11.8371 16.7178 11.818C17.4517 11.7905 18.1886 11.8302 18.9224 11.7981C19.4705 11.7744 19.5859 12.029 19.5095 12.5029C19.3757 13.3308 19.2106 14.1579 19.1502 14.9926C19.1074 15.5843 18.8039 15.6729 18.3285 15.6577C17.8041 15.6408 17.2782 15.6355 16.7538 15.65C16.0092 15.6707 15.9802 15.6944 15.9733 16.4236C15.9611 17.6826 15.9702 18.9423 15.9702 20.2013C15.971 20.2013 15.9725 20.2013 15.9733 20.2013L15.9718 20.2029Z"
    fill="#8AC028" />
  <path
    d="M21.438 28.5134H7.07542C3.17385 28.5134 0 25.3396 0 21.438V7.07542C0 3.17385 3.17385 0 7.07542 0H21.438C25.3396 0 28.5134 3.17385 28.5134 7.07542V21.438C28.5134 25.3396 25.3396 28.5134 21.438 28.5134ZM7.07542 1.8904C4.21651 1.8904 1.8904 4.21651 1.8904 7.07542V21.438C1.8904 24.2969 4.21651 26.623 7.07542 26.623H21.438C24.2969 26.623 26.623 24.2969 26.623 21.438V7.07542C26.623 4.21651 24.2969 1.8904 21.438 1.8904H7.07542Z"
    fill="#8AC028" />
</svg>