<svg viewBox="0 0 29 29" fill="none" xmlns="http://www.w3.org/2000/svg">
  <path
    d="M14.2584 23.5223C12.6768 23.5223 11.0945 23.5368 9.5129 23.5184C7.26553 23.4924 5.06554 21.6617 4.98069 18.9702C4.88361 15.8728 4.91189 12.7692 4.97993 9.6703C5.04108 6.86796 7.42834 5.10139 9.43417 5.00355C12.1639 4.8713 14.8936 4.97527 17.6226 4.92787C18.2441 4.91717 18.8609 4.96074 19.4778 5.03871C21.6809 5.31619 23.5223 7.22188 23.5567 9.42951C23.6064 12.6225 23.6156 15.8177 23.5407 19.0092C23.4818 21.5034 21.5929 23.348 19.0971 23.5276C17.4857 23.6438 15.8713 23.5551 14.2584 23.5223ZM14.3188 21.9606C15.7941 21.9239 17.3764 22.011 18.955 21.8772C20.7406 21.7259 21.8758 20.6144 21.9346 18.8326C22.034 15.7971 21.9912 12.7608 21.9438 9.72457C21.9362 9.25293 21.836 8.80957 21.6182 8.38455C20.9646 7.11104 19.8814 6.58742 18.5032 6.58512C15.6817 6.57977 12.8603 6.58206 10.0396 6.58589C9.82402 6.58589 9.60922 6.63404 9.39289 6.64628C7.80902 6.73724 6.57373 8.49463 6.59208 9.74903C6.63641 12.7539 6.58825 15.7596 6.61577 18.7653C6.63106 20.4707 7.87859 21.7458 9.56641 21.8711C11.1144 21.9858 12.6654 21.9437 14.3195 21.9606H14.3188Z"
    fill="#8AC028" />
  <path
    d="M14.389 9.50732C17.0515 9.53179 19.133 11.6767 19.0986 14.3606C19.0649 16.9665 16.8458 19.0839 14.1903 19.0426C11.5584 19.0021 9.39739 16.7792 9.45625 14.1741C9.51588 11.5651 11.7159 9.48363 14.389 9.50809V9.50732ZM14.2354 11.1531C12.6515 11.0621 11.1127 12.4771 11.1112 14.2788C11.1104 15.9842 12.5651 17.4267 14.2468 17.4305C16.0287 17.4351 17.4528 16.037 17.4574 14.2796C17.462 12.5176 16.0402 11.1386 14.2354 11.1539V11.1531Z"
    fill="#8AC028" />
  <path
    d="M18.1029 9.24989C18.1327 8.64065 18.6502 8.1606 19.2625 8.1736C19.8572 8.18583 20.3113 8.73315 20.2601 9.37449C20.2127 9.96386 19.7127 10.4401 19.1715 10.411C18.5516 10.3774 18.0731 9.8576 18.1029 9.24989Z"
    fill="#8AC028" />
  <path
    d="M21.438 28.5134H7.07542C3.17385 28.5134 0 25.3396 0 21.438V7.07542C0 3.17385 3.17385 0 7.07542 0H21.438C25.3396 0 28.5134 3.17385 28.5134 7.07542V21.438C28.5134 25.3396 25.3396 28.5134 21.438 28.5134ZM7.07542 1.8904C4.21651 1.8904 1.8904 4.21651 1.8904 7.07542V21.438C1.8904 24.2969 4.21651 26.623 7.07542 26.623H21.438C24.2969 26.623 26.623 24.2969 26.623 21.438V7.07542C26.623 4.21651 24.2969 1.8904 21.438 1.8904H7.07542Z"
    fill="#8AC028" />
</svg>