<svg viewBox="0 0 29 29" fill="none" xmlns="http://www.w3.org/2000/svg">
  <path
    d="M22.273 15.4912C22.2623 14.5761 22.0926 13.6833 21.7088 12.8394C21.3098 11.9618 20.6287 11.3969 19.6885 11.3182C18.3676 11.2074 17.0558 11.202 16.0032 11.9962C15.8076 12.1438 15.2312 12.7339 15.1272 12.8096C15.0829 12.8417 15.0355 12.7989 15.0355 12.7775C15.037 12.5612 15.0393 12.4136 15.034 12.3089C14.9965 11.5903 14.9988 11.5865 14.2504 11.572C13.6878 11.5613 13.1245 11.5544 12.5611 11.5582C11.8349 11.5644 11.8295 11.5697 11.8288 12.3219C11.8273 15.2427 11.8288 18.1635 11.8295 21.0844C11.8295 21.2717 11.8272 21.4597 11.8311 21.647C11.8407 22.1077 12.0874 22.3372 12.571 22.3357C12.9464 22.3342 13.3217 22.3327 13.697 22.3319C15.2985 22.3288 15.037 22.4947 15.0737 20.9728C15.1127 19.3667 15.008 17.7576 15.1807 16.1539C15.2243 15.7472 15.3176 15.3627 15.5155 15.0073C15.9337 14.2597 16.6484 14.0235 17.422 14.0548C18.1398 14.0846 18.548 14.5991 18.788 15.2481C18.9768 15.7595 19.0303 16.2892 19.0318 16.8273C19.0372 18.4617 19.0326 20.0967 19.0449 21.7311C19.0494 22.2975 19.0762 22.3158 19.6426 22.3243C20.313 22.3342 20.9834 22.3403 21.653 22.3227C22.2722 22.3067 22.2844 22.2914 22.2852 21.6814C22.2883 19.6182 22.2951 17.5543 22.2714 15.4919L22.273 15.4912Z"
    fill="#8AC028" />
  <path
    d="M9.73147 12.2597C9.72842 11.7002 9.70014 11.6749 9.13447 11.6642C8.4916 11.652 7.8472 11.6574 7.20432 11.6681C6.54158 11.6788 6.52858 11.6857 6.52476 12.3362C6.51482 14.024 6.51635 15.7118 6.51558 17.4004C6.51482 18.8475 6.50947 20.2945 6.52093 21.7408C6.52552 22.3118 6.55151 22.3232 7.11947 22.3294C7.76311 22.3355 8.40598 22.3378 9.04962 22.3324C9.72154 22.3263 9.73224 22.3187 9.73453 21.6651C9.73988 20.1378 9.73606 18.6105 9.73606 17.0832H9.73453C9.73453 15.4756 9.73988 13.8681 9.73147 12.2605V12.2597Z"
    fill="#8AC028" />
  <path
    d="M8.12615 6.1766C7.16528 6.15596 6.21129 7.11453 6.22276 8.08993C6.23499 9.12494 7.10031 10.0025 8.10628 9.99943C9.08855 9.99638 10.0066 9.09131 10.0288 8.10598C10.0502 7.1604 9.10002 6.19724 8.12615 6.1766Z"
    fill="#8AC028" />
  <path
    d="M22.273 15.4912C22.2623 14.5761 22.0926 13.6833 21.7088 12.8394C21.3098 11.9618 20.6287 11.3969 19.6885 11.3182C18.3676 11.2074 17.0558 11.202 16.0032 11.9962C15.8076 12.1438 15.2312 12.7339 15.1272 12.8096C15.0829 12.8417 15.0355 12.7989 15.0355 12.7775C15.037 12.5612 15.0393 12.4136 15.034 12.3089C14.9965 11.5903 14.9988 11.5865 14.2504 11.572C13.6878 11.5613 13.1245 11.5544 12.5611 11.5582C11.8349 11.5644 11.8295 11.5697 11.8288 12.3219C11.8273 15.2427 11.8288 18.1635 11.8295 21.0844C11.8295 21.2717 11.8272 21.4597 11.8311 21.647C11.8407 22.1077 12.0874 22.3372 12.571 22.3357C12.9464 22.3342 13.3217 22.3327 13.697 22.3319C15.2985 22.3288 15.037 22.4947 15.0737 20.9728C15.1127 19.3667 15.008 17.7576 15.1807 16.1539C15.2243 15.7472 15.3176 15.3627 15.5155 15.0073C15.9337 14.2597 16.6484 14.0235 17.422 14.0548C18.1398 14.0846 18.548 14.5991 18.788 15.2481C18.9768 15.7595 19.0303 16.2892 19.0318 16.8273C19.0372 18.4617 19.0326 20.0967 19.0449 21.7311C19.0494 22.2975 19.0762 22.3158 19.6426 22.3243C20.313 22.3342 20.9834 22.3403 21.653 22.3227C22.2722 22.3067 22.2844 22.2914 22.2852 21.6814C22.2883 19.6182 22.2951 17.5543 22.2714 15.4919L22.273 15.4912Z"
    fill="#8AC028" />
  <path
    d="M9.73147 12.2597C9.72842 11.7002 9.70014 11.6749 9.13447 11.6642C8.4916 11.652 7.8472 11.6574 7.20432 11.6681C6.54158 11.6788 6.52858 11.6857 6.52476 12.3362C6.51482 14.024 6.51635 15.7118 6.51558 17.4004C6.51482 18.8475 6.50947 20.2945 6.52093 21.7408C6.52552 22.3118 6.55151 22.3232 7.11947 22.3294C7.76311 22.3355 8.40598 22.3378 9.04962 22.3324C9.72154 22.3263 9.73224 22.3187 9.73453 21.6651C9.73988 20.1378 9.73606 18.6105 9.73606 17.0832H9.73453C9.73453 15.4756 9.73988 13.8681 9.73147 12.2605V12.2597Z"
    fill="#8AC028" />
  <path
    d="M8.12615 6.1766C7.16528 6.15596 6.21129 7.11453 6.22276 8.08993C6.23499 9.12494 7.10031 10.0025 8.10628 9.99943C9.08855 9.99638 10.0066 9.09131 10.0288 8.10598C10.0502 7.1604 9.10002 6.19724 8.12615 6.1766Z"
    fill="#8AC028" />
  <path
    d="M21.438 28.5134H7.07542C3.17384 28.5134 0 25.3396 0 21.438V7.07542C0 3.17385 3.17384 0 7.07542 0H21.438C25.3396 0 28.5134 3.17385 28.5134 7.07542V21.438C28.5134 25.3396 25.3396 28.5134 21.438 28.5134ZM7.07542 1.8904C4.21651 1.8904 1.8904 4.21651 1.8904 7.07542V21.438C1.8904 24.2969 4.21651 26.623 7.07542 26.623H21.438C24.2969 26.623 26.623 24.2969 26.623 21.438V7.07542C26.623 4.21651 24.2969 1.8904 21.438 1.8904H7.07542Z"
    fill="#8AC028" />
</svg>