<svg viewBox="0 0 29 29" fill="none" xmlns="http://www.w3.org/2000/svg">
  <path
    d="M20.2596 7.80469H8.25448C6.3786 7.80469 4.85742 9.40461 4.85742 11.3776V17.1351C4.85742 19.1088 6.3786 20.708 8.25448 20.708H20.2596C22.1355 20.708 23.6567 19.1081 23.6567 17.1351V11.3776C23.6567 9.40384 22.1362 7.80469 20.2596 7.80469ZM17.2455 14.7395C15.5531 15.7187 13.8454 16.6719 12.1438 17.6351C11.6531 17.9133 11.6011 17.5976 11.5996 17.2292C11.5965 16.2362 11.6378 12.7833 11.6546 11.3623C11.6393 10.7553 11.8702 10.6216 12.3609 10.9365C14.0969 11.9455 15.5569 12.804 17.2134 13.7343C17.8364 14.0477 17.7974 14.4207 17.2455 14.7402V14.7395Z"
    fill="#8AC028" />
  <path
    d="M21.438 28.5134H7.07543C3.17385 28.5134 0 25.3396 0 21.438V7.07542C0 3.17385 3.17385 0 7.07543 0H21.438C25.3396 0 28.5134 3.17385 28.5134 7.07542V21.438C28.5134 25.3396 25.3396 28.5134 21.438 28.5134ZM7.07543 1.8904C4.21652 1.8904 1.8904 4.21651 1.8904 7.07542V21.438C1.8904 24.2969 4.21652 26.623 7.07543 26.623H21.438C24.2969 26.623 26.623 24.2969 26.623 21.438V7.07542C26.623 4.21651 24.2969 1.8904 21.438 1.8904H7.07543Z"
    fill="#8AC028" />
</svg>