<svg viewBox="0 0 44 48" fill="none" xmlns="http://www.w3.org/2000/svg">
<path d="M42.9825 12.4441H35.4327V8.21748C35.4327 7.78114 35.0789 7.42736 34.6426 7.42736H30.5475V5.26183H32.6969C33.1332 5.26183 33.487 4.90805 33.487 4.4717V0.790123C33.487 0.353778 33.1332 0 32.6969 0H11.0758C10.6394 0 10.2856 0.353778 10.2856 0.790123V4.47161C10.2856 4.90795 10.6394 5.26173 11.0758 5.26173H13.2252V7.42726H9.13007C8.69373 7.42726 8.33995 7.78104 8.33995 8.21738V12.444H0.790123C0.353779 12.444 0 12.7978 0 13.2342V42.6885C0 43.1248 0.353779 43.4786 0.790123 43.4786H3.74301V44.6454C3.74301 45.8669 4.73669 46.8605 5.95812 46.8605H13.6342C14.059 47.5439 14.8162 48 15.6783 48H28.0972C28.9583 48 29.7147 47.5439 30.139 46.8605H37.8174C39.0388 46.8605 40.0325 45.8669 40.0325 44.6454V43.4786H42.9826C43.419 43.4786 43.7727 43.1248 43.7727 42.6885V13.2343C43.7727 12.7979 43.4189 12.4441 42.9825 12.4441ZM32.3413 34.6532C30.7062 34.6532 29.9708 32.6596 29.9708 31.2439C29.9708 29.9368 31.0343 28.8734 32.3413 28.8734C33.6484 28.8734 34.7119 29.9369 34.7119 31.2439C34.7119 32.3563 34.1324 34.6532 32.3413 34.6532ZM11.8659 1.58025H31.9068V3.68148H11.8659V1.58025ZM14.8054 5.26173H28.9672V7.42726H14.8054V5.26173ZM9.06351 31.2439C9.06351 29.9368 10.127 28.8734 11.4341 28.8734C12.7411 28.8734 13.8046 29.9369 13.8046 31.2439C13.8046 32.6596 13.0691 34.6532 11.4341 34.6532C9.64297 34.6532 9.06351 32.3563 9.06351 31.2439ZM5.32326 44.6455V40.7652C5.32326 39.4334 6.51605 38.3498 7.98222 38.3498H14.3765C13.6884 39.1194 13.2728 40.1115 13.2728 41.1936V45.2803H5.95812C5.6081 45.2803 5.32326 44.9957 5.32326 44.6455ZM14.853 45.5946V41.1937C14.853 39.6257 16.253 38.3499 17.9739 38.3499H19.8033C19.8042 38.6466 19.867 38.9327 19.9815 39.1331C20.0666 39.2793 20.1735 39.4142 20.2974 39.5333L19.2286 45.5373C19.1784 45.8196 19.2849 46.1069 19.5072 46.2881L19.6686 46.4198H15.6783C15.2233 46.4198 14.853 46.0496 14.853 45.5946ZM21.8873 46.1901L20.8657 45.3569L21.8876 39.6162L22.9072 45.3572L21.8873 46.1901ZM22.3924 38.3841C22.3653 38.4122 22.3269 38.4422 22.2786 38.4647C22.0987 38.5486 21.9626 38.6939 21.8877 38.8668C21.8123 38.6926 21.6749 38.5467 21.4931 38.463C21.4505 38.4434 21.4115 38.4154 21.3829 38.3858C21.3824 38.3744 21.3823 38.3623 21.3825 38.3499H22.3927C22.3929 38.3617 22.3927 38.3732 22.3924 38.3841ZM28.9196 45.5946C28.9196 46.0496 28.5507 46.4198 28.0972 46.4198H24.1044L24.2661 46.2877C24.4879 46.1066 24.5943 45.8196 24.5442 45.5376L23.4777 39.5326C23.6027 39.4124 23.7107 39.2761 23.7971 39.1276C23.9104 38.9294 23.9723 38.6451 23.9725 38.3499H25.7986C27.5195 38.3499 28.9195 39.6257 28.9195 41.1937L28.9196 45.5946ZM38.4522 44.6455C38.4522 44.9956 38.1674 45.2804 37.8173 45.2804H30.4999V41.1937C30.4999 40.1116 30.0843 39.1195 29.3962 38.3499H35.7904C37.2581 38.3499 38.4522 39.4335 38.4522 40.7653V44.6455ZM42.1924 41.8985H40.0324V40.7652C40.0324 38.5621 38.1294 36.7696 35.7904 36.7696H28.8895C28.3713 36.7696 27.8684 36.8583 27.3894 37.0308C26.8924 36.8621 26.3568 36.7696 25.7987 36.7696H17.9739C17.4158 36.7696 16.8803 36.862 16.3833 37.0308C15.9043 36.8584 15.4015 36.7696 14.8833 36.7696H7.98233C5.64484 36.7696 3.74312 38.562 3.74312 40.7652V41.8985H1.58035V14.0244H8.34006V28.7916C7.80445 29.466 7.48336 30.3179 7.48336 31.2439C7.48336 33.6627 8.86806 36.2335 11.4342 36.2335C14.0003 36.2335 15.385 33.6628 15.385 31.2439C15.385 29.0654 13.6126 27.2931 11.4342 27.2931C10.8981 27.2931 10.3868 27.4009 9.9202 27.5953V9.00751H33.8525V27.5941C33.3867 27.4005 32.8764 27.2931 32.3413 27.2931C30.1628 27.2931 28.3905 29.0655 28.3905 31.244C28.3905 33.6627 29.7752 36.2335 32.3413 36.2335C34.9075 36.2335 36.2922 33.6628 36.2922 31.244C36.2922 30.3162 35.97 29.4629 35.4327 28.7881V14.0244H42.1924L42.1924 41.8985ZM15.1149 17.3496H16.6951V19.8496H15.1149V17.3496ZM15.1149 22.0445H16.6951V24.5474H15.1149V22.0445ZM22.6778 24.5474H21.0976V22.0445H22.6778V24.5474ZM22.6778 19.8497H21.0976V17.3497H22.6778V19.8497ZM15.1149 12.6521H16.6951V15.1549H15.1149V12.6521ZM28.6577 24.5474H27.0774V22.0445H28.6577V24.5474ZM28.6577 19.8497H27.0774V17.3497H28.6577V19.8497ZM28.6577 15.1548H27.0774V12.652H28.6577V15.1548ZM22.6778 15.1548H21.0976V12.652H22.6778V15.1548ZM4.17137 29.0575H5.75161V31.5603H4.17137V29.0575ZM4.17137 24.3626H5.75161V26.8626H4.17137V24.3626ZM4.17137 33.7552H5.75161V36.258H4.17137V33.7552ZM4.17137 19.6649H5.75161V22.1677H4.17137V19.6649ZM39.6041 31.5602H38.0238V29.0574H39.6041V31.5602ZM39.6041 26.8626H38.0238V24.3626H39.6041V26.8626ZM39.6041 36.258H38.0238V33.7552H39.6041V36.258ZM39.6041 22.1677H38.0238V19.6649H39.6041V22.1677ZM21.8877 26.0305C19.3943 26.0305 17.3657 28.0591 17.3657 30.5525C17.3657 33.3391 18.9505 36.3006 21.8877 36.3006C24.8249 36.3006 26.4097 33.3391 26.4097 30.5525C26.4097 28.0591 24.3811 26.0305 21.8877 26.0305ZM21.8877 34.7204C19.8587 34.7204 18.946 32.2832 18.946 30.5525C18.946 28.9305 20.2656 27.6108 21.8877 27.6108C23.5098 27.6108 24.8294 28.9304 24.8294 30.5525C24.8294 32.2832 23.9168 34.7204 21.8877 34.7204Z" fill="#8AC028"/>
</svg>
