<svg viewBox="0 0 34 49" fill="none" xmlns="http://www.w3.org/2000/svg">
<path d="M32.8463 45.2174H31.7214V43.6541C31.7214 43.3837 31.5709 43.1644 31.3854 43.1644H30.2604V13.5933C30.2604 13.3228 30.1099 13.1035 29.9244 13.1035H23.023V10.4542C23.023 10.1837 22.8726 9.96442 22.687 9.96442H20.5067V7.46127C20.5067 7.1908 20.3563 6.97147 20.1707 6.97147H17.0522V4.59449H19.99C20.1169 4.59449 20.2329 4.49036 20.29 4.3252C20.3471 4.16004 20.3356 3.96216 20.2602 3.81346L19.5545 2.42215L20.2602 1.03093C20.3356 0.882228 20.3471 0.684253 20.29 0.519192C20.2329 0.35413 20.1169 0.25 19.99 0.25H16.7162C16.5306 0.25 16.3801 0.46933 16.3801 0.739796V6.97147H13.2616C13.0761 6.97147 12.9256 7.1908 12.9256 7.46127V9.96442H10.7453C10.5598 9.96442 10.4093 10.1837 10.4093 10.4542V13.1035H3.50795C3.32238 13.1035 3.1719 13.3228 3.1719 13.5933V43.1644H2.04703C1.86147 43.1644 1.71099 43.3837 1.71099 43.6541V45.2174H0.586044C0.400481 45.2174 0.25 45.4367 0.25 45.7072V47.7602C0.25 48.0307 0.400481 48.25 0.586044 48.25H32.8463C33.0318 48.25 33.1823 48.0307 33.1823 47.7602V45.7072C33.1823 45.4366 33.0318 45.2174 32.8463 45.2174ZM17.0522 1.22959H19.3236L18.8663 2.13101C18.7785 2.30411 18.7785 2.54038 18.8663 2.71338L19.3236 3.6149H17.0522V1.22959ZM29.5883 14.0831V43.1644H23.023V14.0831H29.5883ZM13.5977 7.95106H19.8347V9.96442H13.5977V7.95106ZM22.351 10.9439V43.1643H21.2284V33.7883C21.2284 33.5178 21.0779 33.2985 20.8924 33.2985H12.5399C12.3543 33.2985 12.2038 33.5178 12.2038 33.7883V43.1643H11.0814V10.9439H22.351ZM12.8759 43.1643V34.2781H16.3801V43.1643L12.8759 43.1643ZM17.0522 34.2782H20.5564V43.1644H17.0522V34.2782ZM3.84399 14.0831H10.4093V43.1644H3.84399V14.0831ZM2.38307 44.1438H31.0493V45.2173H2.38307V44.1438ZM32.5102 47.2704H0.922088V46.197H32.5102V47.2704ZM8.72967 16.7279H5.53188C5.34631 16.7279 5.19583 16.9472 5.19583 17.2177V21.8786C5.19583 22.1491 5.34631 22.3684 5.53188 22.3684H8.72967C8.91524 22.3684 9.06572 22.1491 9.06572 21.8786V17.2177C9.06572 16.9472 8.91524 16.7279 8.72967 16.7279ZM8.39363 21.3888H5.86792V17.7075H8.39363V21.3888ZM8.72967 25.0133H5.53188C5.34631 25.0133 5.19583 25.2326 5.19583 25.5031V30.164C5.19583 30.4345 5.34631 30.6538 5.53188 30.6538H8.72967C8.91524 30.6538 9.06572 30.4345 9.06572 30.164V25.5031C9.06572 25.2325 8.91524 25.0133 8.72967 25.0133ZM8.39363 29.6742H5.86792V25.9929H8.39363V29.6742ZM8.72967 33.2986H5.53188C5.34631 33.2986 5.19583 33.5179 5.19583 33.7884V38.4493C5.19583 38.7197 5.34631 38.9391 5.53188 38.9391H8.72967C8.91524 38.9391 9.06572 38.7197 9.06572 38.4493V33.7884C9.06572 33.5178 8.91524 33.2986 8.72967 33.2986ZM8.39363 37.9595H5.86792V34.2782H8.39363V37.9595ZM24.7068 22.3684H27.9046C28.0902 22.3684 28.2407 22.1491 28.2407 21.8786V17.2177C28.2407 16.9472 28.0902 16.7279 27.9046 16.7279H24.7068C24.5213 16.7279 24.3708 16.9472 24.3708 17.2177V21.8786C24.3708 22.1492 24.5212 22.3684 24.7068 22.3684ZM25.0429 17.7075H27.5686V21.3888H25.0429V17.7075ZM24.7068 30.6538H27.9046C28.0902 30.6538 28.2407 30.4345 28.2407 30.164V25.5031C28.2407 25.2326 28.0902 25.0133 27.9046 25.0133H24.7068C24.5213 25.0133 24.3708 25.2326 24.3708 25.5031V30.164C24.3708 30.4345 24.5212 30.6538 24.7068 30.6538ZM25.0429 25.9929H27.5686V29.6742H25.0429V25.9929ZM24.7068 38.9391H27.9046C28.0902 38.9391 28.2407 38.7197 28.2407 38.4493V33.7884C28.2407 33.5179 28.0902 33.2986 27.9046 33.2986H24.7068C24.5213 33.2986 24.3708 33.5179 24.3708 33.7884V38.4493C24.3708 38.7197 24.5212 38.9391 24.7068 38.9391ZM25.0429 34.2782H27.5686V37.9595H25.0429V34.2782ZM12.5399 30.6538H15.7377C15.9232 30.6538 16.0737 30.4344 16.0737 30.164V25.5031C16.0737 25.2326 15.9232 25.0133 15.7377 25.0133H12.5399C12.3543 25.0133 12.2038 25.2326 12.2038 25.5031V30.164C12.2038 30.4345 12.3543 30.6538 12.5399 30.6538ZM12.8759 25.9929H15.4016V29.6742H12.8759V25.9929ZM17.6947 30.6538H20.8925C21.078 30.6538 21.2285 30.4345 21.2285 30.164V25.5031C21.2285 25.2326 21.078 25.0133 20.8925 25.0133H17.6947C17.5091 25.0133 17.3586 25.2326 17.3586 25.5031V30.164C17.3586 30.4345 17.509 30.6538 17.6947 30.6538ZM18.0307 25.9929H20.5564V29.6742H18.0307V25.9929ZM12.5399 22.3684H15.7377C15.9232 22.3684 16.0737 22.1491 16.0737 21.8786V17.2177C16.0737 16.9472 15.9232 16.7279 15.7377 16.7279H12.5399C12.3543 16.7279 12.2038 16.9472 12.2038 17.2177V21.8786C12.2038 22.1492 12.3543 22.3684 12.5399 22.3684ZM12.8759 17.7075H15.4016V21.3888H12.8759V17.7075ZM17.6947 22.3684H20.8925C21.078 22.3684 21.2285 22.1491 21.2285 21.8786V17.2177C21.2285 16.9472 21.078 16.7279 20.8925 16.7279H17.6947C17.5091 16.7279 17.3586 16.9472 17.3586 17.2177V21.8786C17.3586 22.1492 17.509 22.3684 17.6947 22.3684ZM18.0307 17.7075H20.5564V21.3888H18.0307V17.7075Z" fill="#8AC028" stroke="#8AC028" stroke-width="0.5"/>
</svg>
