<svg viewBox="0 0 32 48" fill="none" xmlns="http://www.w3.org/2000/svg">
<path d="M24.5545 4.71245H20.8799V3.26517C20.8799 1.46492 19.4151 0 17.6148 0H13.9761C12.1759 0 10.711 1.46483 10.711 3.26517V4.71245H7.03635C3.15672 4.71245 0 7.86881 0 11.7484V31.7556C0 31.7573 0.000930786 31.7586 0.000930786 31.7603C0.00327301 35.6372 3.15813 38.7908 7.0356 38.7908H7.37309L0.793976 46.7728C0.530319 47.0924 0.575722 47.5653 0.89576 47.8286C1.2142 48.0925 1.68862 48.0462 1.95116 47.7272L3.72092 45.5801H27.87L29.6397 47.7272C29.9025 48.0466 30.3772 48.0922 30.6951 47.8286C31.0152 47.5653 31.0606 47.0924 30.7969 46.7728L24.2178 38.7908H24.5553C28.4328 38.7908 31.5876 35.6372 31.59 31.7603C31.59 31.7586 31.5909 31.7573 31.5909 31.7556C31.5909 24.7202 31.5909 18.7879 31.5909 11.7484C31.5909 7.86881 28.4342 4.71245 24.5545 4.71245ZM24.5545 10.0177C25.5089 10.0177 26.2853 10.7944 26.2853 11.7488V20.9982H16.5455V10.0177L24.5545 10.0177ZM15.0455 20.9981H5.3058V11.7487C5.3058 10.7943 6.08216 10.0176 7.03654 10.0176H15.0456L15.0455 20.9981ZM30.0909 22.4981V31.0056H1.50008V22.4981H30.0909ZM12.211 3.26517C12.211 2.29174 13.0028 1.5 13.9762 1.5H17.6149C18.5883 1.5 19.38 2.29174 19.38 3.26517V4.71245H12.2111L12.211 3.26517ZM1.50008 11.7484C1.50008 8.69573 3.98373 6.21245 7.03645 6.21245H24.5545C27.6072 6.21245 30.0909 8.69573 30.0909 11.7484V20.9982H27.7853V11.7488C27.7853 9.96724 26.3358 8.5177 24.5545 8.5177H7.03645C5.25524 8.5177 3.80571 9.96714 3.80571 11.7488V20.9982H1.50008V11.7484ZM4.95744 44.0801L6.86996 41.7597H24.721L26.6335 44.0801H4.95744ZM23.4846 40.2597H8.1064L9.31712 38.7908H22.274L23.4846 40.2597ZM24.5553 37.2908H7.0357C4.23783 37.2908 1.91824 35.2045 1.5513 32.506H30.0395C29.6727 35.2045 27.3531 37.2908 24.5553 37.2908Z" fill="#8AC028"/>
<path d="M6.02233 29.4222C7.49142 29.4222 8.68593 28.2226 8.68593 26.748C8.68593 25.2789 7.49132 24.084 6.02233 24.084C4.54743 24.084 3.34766 25.2789 3.34766 26.748C3.34766 28.2225 4.54734 29.4222 6.02233 29.4222ZM6.02233 25.5831C6.67522 25.5831 7.18685 26.0947 7.18685 26.748C7.18685 27.3961 6.66426 27.9232 6.02233 27.9232C5.37383 27.9232 4.84674 27.3962 4.84674 26.748C4.84674 26.1057 5.37375 25.5831 6.02233 25.5831Z" fill="#8AC028"/>
<path d="M25.5802 29.4222C27.0493 29.4222 28.2445 28.2226 28.2445 26.748C28.2445 25.2789 27.0493 24.084 25.5802 24.084C24.106 24.084 22.9062 25.2789 22.9062 26.748C22.9062 28.2225 24.1059 29.4222 25.5802 29.4222ZM25.5802 25.5831C26.2338 25.5831 26.7455 26.0947 26.7455 26.748C26.7455 27.3961 26.2228 27.9232 25.5802 27.9232C24.9323 27.9232 24.4053 27.3962 24.4053 26.748C24.4053 26.1057 24.9323 25.5831 25.5802 25.5831Z" fill="#8AC028"/>
<path d="M16.2992 2.35547H15.2906C14.8762 2.35547 14.541 2.69106 14.541 3.10501C14.541 3.51896 14.8762 3.85455 15.2906 3.85455H16.2992C16.7135 3.85455 17.0487 3.51896 17.0487 3.10501C17.0487 2.69106 16.7135 2.35547 16.2992 2.35547Z" fill="#8AC028"/>
</svg>
