<svg viewBox="0 0 114 122" fill="none" xmlns="http://www.w3.org/2000/svg">
<mask id="mask0_45_1238" style="mask-type:alpha" maskUnits="userSpaceOnUse" x="0" y="0" width="114" height="122">
<rect width="113.678" height="122" fill="#D9D9D9"/>
</mask>
<g mask="url(#mask0_45_1238)">
<path fill-rule="evenodd" clip-rule="evenodd" d="M106.295 58.8751C105.15 59.0683 104.377 60.1536 104.57 61.3007C105.026 63.9983 105.256 66.7119 105.256 69.3722C105.256 84.2105 98.6429 97.6033 87.9874 106.521C86.1261 94.4381 77.5471 84.7467 66.1553 81.2782C70.6846 78.257 73.6795 73.1093 73.6795 67.2669C73.6795 57.9788 66.124 50.4258 56.8384 50.4258C47.552 50.4258 39.9965 57.9788 39.9965 67.2669C39.9965 73.1093 42.9914 78.257 47.5207 81.2782C36.1289 84.7467 27.55 94.4381 25.6886 106.521C15.0331 97.6033 8.41968 84.2105 8.41968 69.3722C8.41968 66.7119 8.65012 63.9983 9.10593 61.3007C9.29994 60.1536 8.52643 59.0683 7.38183 58.8751C6.20928 58.6777 5.14855 59.4546 4.95369 60.6018C4.45976 63.5255 4.20898 66.4772 4.20898 69.3722C4.20898 95.226 22.675 117.046 48.1154 121.257C48.2306 121.277 48.3476 121.286 48.4602 121.286C49.4718 121.286 50.364 120.554 50.5351 119.525C50.7266 118.378 49.9488 117.293 48.8017 117.104C41.7079 115.93 35.2182 113.247 29.5985 109.443C30.6135 95.1566 42.3552 84.1079 56.8384 84.1079C71.3208 84.1079 83.0625 95.1566 84.0775 109.443C78.4578 113.247 71.9681 115.93 64.8743 117.104C63.7272 117.293 62.9503 118.378 63.1409 119.525C63.3121 120.554 64.2042 121.286 65.2158 121.286C65.3284 121.286 65.4454 121.277 65.5606 121.257C91.0018 117.046 109.467 95.226 109.467 69.3722C109.467 66.4772 109.216 63.5255 108.722 60.6018C108.527 59.4546 107.454 58.6735 106.295 58.8751ZM44.2072 67.2669C44.2072 60.3019 49.8734 54.6356 56.8384 54.6356C63.8034 54.6356 69.4688 60.3019 69.4688 67.2669C69.4688 74.2319 63.8034 79.8981 56.8384 79.8981C49.8734 79.8981 44.2072 74.2319 44.2072 67.2669Z" fill="#8AC028"/>
<path fill-rule="evenodd" clip-rule="evenodd" d="M79.8919 16.6519C79.6436 15.8869 78.9853 15.332 78.1923 15.2167L64.741 13.2639L58.7257 1.07322C58.0183 -0.35774 55.6579 -0.35774 54.9513 1.07322L48.9361 13.2639L35.4847 15.2167C34.6909 15.332 34.0334 15.8869 33.7843 16.6519C33.5378 17.4127 33.7428 18.2515 34.3172 18.8107L44.051 28.2962L41.7525 41.6916C41.6169 42.4854 41.9422 43.2827 42.5895 43.7512C43.241 44.2248 44.0984 44.2943 44.8075 43.9122L56.8381 37.5843L68.8687 43.9122C69.177 44.0765 69.5142 44.1545 69.8497 44.1545C70.2852 44.1545 70.719 44.0189 71.0867 43.7512C71.7348 43.2827 72.0593 42.4854 71.9237 41.6916L69.6252 28.2962L79.3598 18.8107C79.9334 18.2515 80.1384 17.4127 79.8919 16.6519ZM65.8941 26.051C65.3984 26.5365 65.1722 27.2312 65.29 27.9175L67.0539 38.201L57.8192 33.3448C57.5108 33.1846 57.1753 33.1025 56.8381 33.1025C56.5009 33.1025 56.1662 33.1846 55.8579 33.3448L46.6231 38.201L48.3871 27.9175C48.504 27.2312 48.2778 26.5365 47.7821 26.051L40.3113 18.7734L50.6356 17.273C51.3227 17.1696 51.9149 16.7426 52.2207 16.1216L56.8381 6.76316L61.4555 16.1216C61.7622 16.7426 62.3544 17.1696 63.0406 17.273L73.3649 18.7734L65.8941 26.051Z" fill="#8AC028"/>
<path fill-rule="evenodd" clip-rule="evenodd" d="M6.46198 50.5224C6.32642 51.3171 6.65176 52.1144 7.29903 52.582C7.95309 53.0556 8.81217 53.1209 9.51706 52.7439L18.945 47.7851L28.3728 52.7439C28.6812 52.9082 29.0184 52.9862 29.3539 52.9862C29.7894 52.9862 30.2232 52.8506 30.5917 52.582C31.239 52.1144 31.5635 51.3171 31.4279 50.5224L29.6276 40.0253L37.256 32.5927C37.8295 32.0335 38.0354 31.1947 37.7889 30.4339C37.5398 29.6689 36.8823 29.114 36.0885 28.9988L25.5465 27.4695L20.8326 17.9137C20.1251 16.4819 17.7656 16.4819 17.0582 17.9137L12.3442 27.4695L1.80225 28.9988C1.00925 29.114 0.350963 29.6689 0.102727 30.4339C-0.143814 31.1947 0.0612133 32.0335 0.633936 32.5927L8.26317 40.0253L6.46198 50.5224ZM6.62973 32.5545L14.0438 31.4786C14.7309 31.3752 15.3231 30.9474 15.6289 30.3272L18.945 23.6045L22.261 30.3272C22.5677 30.9474 23.1599 31.3752 23.8461 31.4786L31.2619 32.5545L25.8956 37.7811C25.4008 38.2665 25.1746 38.9612 25.2915 39.6483L26.5581 47.0327L19.926 43.5447C19.6176 43.3854 19.2821 43.3033 18.945 43.3033C18.6078 43.3033 18.2731 43.3854 17.9647 43.5447L11.3327 47.0327L12.5993 39.6483C12.7162 38.9612 12.49 38.2665 11.9943 37.7811L6.62973 32.5545Z" fill="#8AC028"/>
<path fill-rule="evenodd" clip-rule="evenodd" d="M111.874 29.0001L101.332 27.4708L96.6177 17.915C95.9111 16.4841 93.5516 16.4841 92.8433 17.915L88.1294 27.4708L77.5874 29.0001C76.7944 29.1153 76.1369 29.6702 75.8879 30.4353C75.6413 31.1952 75.8464 32.034 76.4199 32.5931L84.0492 40.0275L82.248 50.5246C82.1133 51.3176 82.4369 52.1157 83.085 52.5842C83.7374 53.0569 84.5939 53.123 85.3039 52.7443L94.7309 47.7855L104.159 52.7443C104.467 52.9087 104.804 52.9875 105.139 52.9875C105.575 52.9875 106.009 52.8511 106.378 52.5842C107.026 52.1157 107.349 51.3176 107.215 50.5246L105.414 40.0275L113.042 32.5931C113.616 32.034 113.821 31.1952 113.574 30.4353C113.326 29.6702 112.667 29.1153 111.874 29.0001ZM101.682 37.7824C101.186 38.2678 100.96 38.9626 101.077 39.6488L102.343 47.0332L95.7112 43.5469C95.4028 43.3867 95.0681 43.3046 94.7309 43.3046C94.3937 43.3046 94.0591 43.3867 93.7498 43.5469L87.1178 47.0332L88.3852 39.6488C88.503 38.9626 88.2759 38.2678 87.7803 37.7824L82.4149 32.5567L89.8298 31.479C90.5168 31.3765 91.1082 30.9487 91.4149 30.3277L94.7309 23.6058L98.0478 30.3277C98.3537 30.9487 98.945 31.3765 99.6321 31.479L107.048 32.5567L101.682 37.7824Z" fill="#8AC028"/>
<path d="M56.8397 117.789C58.0021 117.789 58.9451 118.731 58.9451 119.894C58.9451 121.058 58.0021 122 56.8397 122C55.6773 122 54.7344 121.058 54.7344 119.894C54.7344 118.731 55.6773 117.789 56.8397 117.789Z" fill="#8AC028"/>
</g>
</svg>
