<svg viewBox="0 0 115 122" fill="none" xmlns="http://www.w3.org/2000/svg">
<mask id="mask0_45_1242" style="mask-type:alpha" maskUnits="userSpaceOnUse" x="0" y="0" width="115" height="122">
<rect width="114.082" height="122" fill="#D9D9D9"/>
</mask>
<g mask="url(#mask0_45_1242)">
<path fill-rule="evenodd" clip-rule="evenodd" d="M48.7614 61.7212C48.076 60.9579 48.1446 59.7989 48.8986 59.1109C49.6526 58.4196 50.8176 58.4704 51.503 59.2338L54.2454 62.3134L61.6485 56.227C62.4711 55.5865 63.636 55.6865 64.2528 56.4735C64.9391 57.2606 64.8018 58.4442 63.9792 59.0872L55.2731 66.2818C54.5242 66.8867 53.4033 66.8537 52.7374 66.0836L48.7614 61.7212ZM57.0557 48.3165C50.1322 48.3165 44.5117 53.9344 44.5117 60.835C44.5117 67.7594 50.1322 73.3773 57.0557 73.3773C63.9105 73.3773 69.6005 67.7594 69.6005 60.835C69.6005 53.9344 63.9105 48.3165 57.0557 48.3165ZM40.8093 60.835C40.8093 69.8054 48.076 77.0754 57.0557 77.0754C65.9676 77.0754 73.302 69.8054 73.302 60.835C73.302 51.8892 65.9668 44.6217 57.0557 44.6217C48.076 44.6217 40.8093 51.8892 40.8093 60.835ZM53.1483 38.337C51.3666 41.5158 47.7328 42.9934 44.1686 42.0564L43.4832 41.8615C40.3942 41.0083 37.362 43.7169 38.205 47.0855L38.3422 47.6768C39.3013 51.2013 37.8618 54.7969 34.7085 56.6201L34.0231 57.0141C32.6523 57.8037 31.8983 59.1109 31.8983 60.7122C31.8983 62.2889 32.6523 63.6199 34.0231 64.4069L34.5026 64.7043C37.656 66.5275 39.1649 70.1265 38.2736 73.6747L37.9991 74.4135C37.6568 75.9402 37.9991 77.4177 39.1649 78.5293C40.2612 79.662 41.7006 80.0551 43.2773 79.6374L43.8254 79.49C47.3931 78.542 50.8811 79.9475 52.806 83.1856L53.2169 83.8524C53.9709 85.2308 55.2731 85.9941 56.9184 85.9941C58.4951 85.9941 59.7973 85.2308 60.6199 83.8524L60.8944 83.333C62.7448 80.178 66.3099 78.6767 69.8741 79.6374L70.6282 79.8331C72.1362 80.2534 73.5757 79.8594 74.7406 78.7241C75.8377 77.5914 76.2486 76.1384 75.8377 74.6083L75.6319 74.017C74.7406 70.4959 76.2486 66.8969 79.402 65.05L80.0188 64.6806C81.4582 63.8901 82.2122 62.5591 82.2122 60.9824C82.2122 59.3812 81.4582 58.0739 80.0188 57.2877L79.5393 56.9895C76.3859 55.1425 74.8778 51.5435 75.8377 48.0191L75.975 47.2803C76.3859 45.7299 76.0436 44.2761 74.9465 43.1408C73.7815 42.0326 72.3421 41.6387 70.7654 42.0326L70.2173 42.2063C66.6522 43.1408 63.0879 41.6624 61.2367 38.4845L60.8258 37.8169C60.0718 36.4384 58.7696 35.6988 57.1243 35.6988C55.5476 35.6988 54.2454 36.4384 53.4228 37.8169L53.1483 38.337ZM50.2694 35.9699L49.9271 36.4893C48.9672 38.1862 47.0483 39.0013 45.1285 38.4845L44.4431 38.2862C41.6328 37.5229 38.8218 38.2862 36.6969 40.356C34.6407 42.402 33.8867 45.2106 34.6407 48.0462L34.8457 48.6113C35.3261 50.5099 34.5035 52.4569 32.8582 53.4176L32.1728 53.8116C29.6362 55.2654 28.1967 57.7791 28.1967 60.7122C28.1967 63.6444 29.6362 66.1581 32.1728 67.6128L32.6523 67.9076C34.3662 68.8921 35.1889 70.8153 34.7093 72.7139L34.5035 73.4527C33.7494 76.2858 34.4348 79.0944 36.5597 81.1404C38.6159 83.2102 41.427 83.9761 44.2372 83.2102L44.7854 83.0628C46.7052 82.5459 48.6241 83.3576 49.584 85.0334L49.9949 85.701C51.4343 88.2393 53.9709 89.6931 56.9184 89.6931C59.7973 89.6931 62.3339 88.2393 63.7733 85.701L64.1164 85.1808C65.0763 83.4813 66.9953 82.6934 68.9151 83.2102L69.6691 83.4084C72.4794 84.1472 75.2904 83.4084 77.3466 81.3386C79.4028 79.2689 80.1569 76.4595 79.4028 73.6484L79.2656 73.0588C78.7174 71.161 79.5401 69.2378 81.254 68.2533L81.8708 67.8839C84.4065 66.4055 85.9154 63.891 85.9154 60.9833C85.9154 58.0511 84.4074 55.5365 81.8708 54.0827L81.3904 53.7878C79.6773 52.8025 78.8547 50.8802 79.4028 48.9815L79.6087 48.2428C80.3627 45.4097 79.6087 42.6011 77.5525 40.5305C75.4268 38.4616 72.6852 37.722 69.8064 38.4853L69.2574 38.6327C67.3384 39.1495 65.4186 38.3379 64.4595 36.6375L64.0478 35.9708C62.6084 33.4325 60.0718 32.0024 57.1243 32.0024C54.2454 32.0015 51.7089 33.4316 50.2694 35.9699ZM92.6331 73.3773C92.7017 72.4665 92.7695 71.5541 92.7695 70.6196V48.6359H108.674L100.79 59.948C100.311 60.5648 100.311 61.4272 100.79 62.0669L108.674 73.3773H92.6331ZM89.068 70.6196V31.8541C80.1569 31.1662 65.9676 28.8498 57.0565 21.1596C48.3505 28.799 36.5597 30.4274 24.9748 31.7821V70.6196C24.9748 77.0754 27.9909 82.6425 33.4749 86.3398L54.5877 100.46C56.0958 101.472 57.9469 101.472 59.455 100.46L80.5678 86.3398C86.0518 82.6425 89.068 77.0754 89.068 70.6196ZM69.3946 116.601L58.0842 108.691C57.4674 108.246 56.5761 108.246 55.9594 108.691L44.6489 116.601V98.2424L52.5315 103.517C55.2401 105.346 58.7687 105.37 61.5121 103.517L69.3946 98.2424V116.601ZM5.37003 73.3773L13.3221 62.0669C13.733 61.4272 13.733 60.5648 13.3221 59.948L5.37003 48.6359H21.2732V70.6196C21.2732 71.5541 21.3419 72.4665 21.4791 73.3773H5.37003ZM44.6489 5.41483L55.9594 13.3245C56.5761 13.7659 57.4674 13.7659 58.0842 13.3245L69.3946 5.41483V24.0436C65.2136 22.4423 61.3053 20.2734 58.2901 17.3166C57.6038 16.6016 56.4389 16.6016 55.6849 17.3166C52.6001 20.4446 48.83 22.5889 44.6489 24.1156V5.41483ZM104.56 61.0087L113.746 47.848C114.567 46.6932 113.802 44.9403 112.238 44.9403H92.7695V30.1292C92.7695 29.1684 92.0163 28.3576 91.0564 28.2822C86.395 28.0119 79.6773 27.2723 73.0961 25.3V1.86667C73.0961 0.362849 71.4322 -0.524193 70.2173 0.33828L57.0557 9.55436L43.8949 0.33828C42.586 -0.537748 40.9466 0.441641 40.9466 1.86667V25.2991C35.4354 26.8453 28.8652 27.6519 22.9185 28.3059C21.9586 28.4051 21.2732 29.1921 21.2732 30.1292V44.9403H1.80492C0.308724 44.9403 -0.463943 46.6763 0.296863 47.848L9.48245 61.0087L0.296863 74.1669C-0.469026 75.3429 0.355321 77.0746 1.80492 77.0746H22.1645C23.6039 82.0249 26.8259 86.2881 31.4187 89.394L40.9466 95.7787V120.148C40.9466 121.55 42.5902 122.524 43.8941 121.653L57.0557 112.461L70.2173 121.653C71.3847 122.531 73.0961 121.637 73.0961 120.148V95.7787L82.624 89.394C87.2168 86.289 90.4388 82.0257 91.8782 77.0746H112.238C113.691 77.0746 114.613 75.3835 113.746 74.1669L104.56 61.0087Z" fill="#8AC028"/>
</g>
</svg>
