<svg viewBox="0 0 89 122" fill="none" xmlns="http://www.w3.org/2000/svg">
<mask id="mask0_45_1229" style="mask-type:alpha" maskUnits="userSpaceOnUse" x="0" y="0" width="90" height="122">
<rect width="89.0024" height="122" fill="#D9D9D9"/>
</mask>
<g mask="url(#mask0_45_1229)">
<path d="M86.77 38.2697L81.0419 31.3207C80.2548 30.3668 79.777 29.2129 79.6592 27.9827L78.7959 19.0182C78.3469 14.3611 74.6411 10.6545 69.9831 10.2063L61.0186 9.34295C59.7893 9.22519 58.6354 8.74651 57.6814 7.96114L50.7317 2.23222C47.1217 -0.744073 41.8799 -0.744073 38.2699 2.23222L31.3201 7.96114C30.367 8.74651 29.2131 9.22519 27.9829 9.34295L19.0184 10.2063C14.3604 10.6545 10.6555 14.3611 10.2056 19.0182L9.34317 27.9827C9.22456 29.2129 8.74587 30.3668 7.9605 31.3207L2.23158 38.2697C-0.743861 41.8805 -0.743861 47.1214 2.23158 50.7323L7.9605 57.6812C8.74587 58.6352 9.22456 59.79 9.34317 61.0193L10.2056 69.9837C10.6538 74.6409 14.3604 78.3467 19.0184 78.7957L24.4974 79.3235L11.479 110.434C11.1257 111.281 11.285 112.234 11.895 112.92C12.505 113.606 13.431 113.878 14.3113 113.628L25.6064 110.439C25.6556 110.425 25.703 110.446 25.7251 110.486L31.382 120.771C31.8022 121.537 32.5892 121.999 33.4543 121.999C33.4958 121.999 33.5364 121.998 33.5788 121.996C34.4938 121.95 35.2843 121.397 35.6469 120.544L49.3914 87.6975C49.8582 87.4289 50.3064 87.1213 50.7325 86.7697L57.6823 81.0417C58.5617 80.3165 59.6139 79.8573 60.7374 79.6971L73.1873 109.444L64.377 106.957C62.7021 106.485 60.9475 107.219 60.107 108.743L55.6955 116.764L49.8514 102.797C49.4651 101.875 48.406 101.441 47.4834 101.827C46.5616 102.212 46.127 103.272 46.5133 104.194L53.3597 120.554C53.7181 121.397 54.5077 121.95 55.4236 121.996C55.4659 121.998 55.5066 122 55.5473 122C56.4131 122 57.2002 121.537 57.6204 120.771L63.2756 110.489C63.2994 110.446 63.3477 110.427 63.3951 110.439L74.6886 113.628C75.5705 113.877 76.4974 113.606 77.1065 112.92C77.7157 112.234 77.875 111.282 77.5217 110.432L64.5033 79.3227L69.9831 78.7948C74.6411 78.3467 78.3469 74.6409 78.7959 69.9837L79.6592 61.0184C79.777 59.7883 80.2548 58.6352 81.0419 57.6812L86.77 50.7323C89.7462 47.1214 89.7462 41.8805 86.77 38.2697ZM33.3068 116.764L28.8945 108.742C28.0549 107.218 26.2986 106.484 24.6245 106.957L15.8151 109.443L28.2633 79.6971C29.3884 79.8573 30.4407 80.3165 31.3201 81.0408L38.2699 86.7697C40.0753 88.2583 42.2874 89.0022 44.5012 89.0022C44.6435 89.0022 44.785 88.9988 44.9273 88.992L33.3068 116.764ZM83.9784 48.4312L78.2503 55.3802C77.0032 56.8925 76.2458 58.7216 76.0577 60.6719L75.1944 69.6364C74.9114 72.5737 72.5748 74.9112 69.6366 75.1941L61.7625 75.9524C61.732 75.9541 61.6998 75.9575 61.6693 75.9617L60.6721 76.0575C58.7218 76.2456 56.8918 77.0038 55.3804 78.2501L48.4306 83.9781C46.1541 85.8547 42.8483 85.8547 40.5718 83.9781L33.622 78.2501C32.1106 77.0038 30.2806 76.2447 28.3294 76.0575L27.328 75.9609C27.3 75.9575 27.2729 75.9549 27.2458 75.9533L19.3658 75.1941C16.4276 74.9112 14.091 72.5737 13.808 69.6364L12.9447 60.6728C12.7566 58.7216 11.9992 56.8925 10.7521 55.3802L5.02403 48.4312C3.14658 46.1539 3.14658 42.8472 5.02403 40.5707L10.7521 33.6218C11.9992 32.1104 12.7566 30.2804 12.9447 28.3292L13.808 19.3647C14.091 16.4274 16.4276 14.0899 19.3658 13.807L28.3294 12.9445C30.2806 12.7564 32.1106 11.999 33.622 10.7527L40.5718 5.02466C41.7096 4.08594 43.1058 3.61573 44.5012 3.61573C45.8966 3.61573 47.2928 4.08509 48.4306 5.02466L55.3804 10.7527C56.8918 11.999 58.7218 12.7573 60.6721 12.9445L69.6366 13.807C72.5748 14.0899 74.9114 16.4274 75.1944 19.3647L76.0577 28.3292C76.2458 30.2804 77.0032 32.1104 78.2503 33.6218L83.9784 40.5707C85.855 42.848 85.855 46.1539 83.9784 48.4312Z" fill="#8AC028"/>
<path d="M44.5019 16.2402C43.2937 16.2402 42.078 16.3165 40.8868 16.469C39.8964 16.5961 39.1957 17.5026 39.322 18.493C39.449 19.4842 40.3564 20.1841 41.346 20.0587C42.3847 19.9248 43.4462 19.8579 44.5019 19.8579C58.0905 19.8579 69.145 30.9133 69.145 44.5019C69.145 58.0896 58.0896 69.1442 44.5019 69.1442C30.9133 69.1442 19.8587 58.0888 19.8587 44.5002C19.8587 34.808 25.5732 25.9799 34.4174 22.0081C35.329 21.5998 35.7365 20.528 35.3273 19.6173C34.9172 18.7048 33.8464 18.2981 32.9356 18.7073C22.7935 23.262 16.2402 33.3863 16.2402 44.5002C16.2402 60.0848 28.9189 72.7618 44.5019 72.7618C60.0848 72.7618 72.7635 60.0848 72.7635 44.5002C72.7635 28.9172 60.0848 16.2402 44.5019 16.2402Z" fill="#8AC028"/>
<path d="M26.5351 42.4046C24.3789 44.5617 24.3789 48.0717 26.5351 50.2279L34.4363 58.1308C35.4818 59.1745 36.8704 59.7498 38.3488 59.7498C39.8263 59.7498 41.2158 59.1745 42.2612 58.1308L59.509 40.8813C61.666 38.7234 61.666 35.2151 59.509 33.0572C57.3528 30.9002 53.8428 30.9002 51.6849 33.0572L38.3488 46.3942L34.3584 42.4046C32.2022 40.2484 28.6921 40.2484 26.5351 42.4046ZM38.3488 50.7625C38.8283 50.7625 39.2883 50.5718 39.6281 50.2321L54.2435 35.6158C54.9899 34.8694 56.204 34.8703 56.9504 35.6158C57.6968 36.3622 57.6968 37.5772 56.9504 38.3227L39.7018 55.5722C39.3409 55.9331 38.8596 56.1322 38.3488 56.1322C37.837 56.1322 37.3567 55.9331 36.9958 55.5722L29.0929 47.6701C28.3473 46.9237 28.3473 45.7096 29.0929 44.9641C29.4665 44.5905 29.957 44.4032 30.4476 44.4032C30.9373 44.4032 31.4278 44.5905 31.7997 44.9624L37.0686 50.2321C37.4084 50.5718 37.8684 50.7625 38.3488 50.7625Z" fill="#8AC028"/>
</g>
</svg>
