<svg viewBox="0 0 122 98" fill="none" xmlns="http://www.w3.org/2000/svg">
<mask id="mask0_45_1234" style="mask-type:alpha" maskUnits="userSpaceOnUse" x="0" y="0" width="122" height="98">
<rect width="122" height="98" fill="#D9D9D9"/>
</mask>
<g mask="url(#mask0_45_1234)">
<path d="M63.1206 32.5444V30.0884C63.1206 29.161 63.8678 28.4086 64.7888 28.4086C65.7106 28.4086 66.4578 29.161 66.4578 30.0884V32.5444C66.4578 33.4717 65.7106 34.2241 64.7888 34.2241C63.8678 34.2241 63.1206 33.4717 63.1206 32.5444ZM64.7888 77.3101C63.8678 77.3101 63.1206 78.0625 63.1206 78.9898V81.445C63.1206 82.3732 63.8678 83.1247 64.7888 83.1247C65.7106 83.1247 66.457 82.3732 66.457 81.445V78.9898C66.457 78.0625 65.7106 77.3101 64.7888 77.3101ZM81.0944 41.0258C81.5206 41.0258 81.9467 40.862 82.2721 40.5352L84.0012 38.8018C84.6536 38.1466 84.6561 37.0828 84.0055 36.4259C83.3557 35.7682 82.2992 35.7665 81.646 36.4208L79.9168 38.1551C79.2644 38.8103 79.2619 39.8733 79.9125 40.531C80.2387 40.8603 80.6666 41.0258 81.0944 41.0258ZM47.2953 71.0032L45.5729 72.7444C44.9223 73.4021 44.9248 74.465 45.5772 75.1202C45.9025 75.447 46.3287 75.6099 46.7548 75.6099C47.1827 75.6099 47.6105 75.4453 47.9367 75.1151L49.6591 73.374C50.3097 72.7162 50.3072 71.6533 49.6548 70.9981C49.0016 70.3438 47.9452 70.3464 47.2953 71.0032ZM41.7223 54.0908H39.284C38.3631 54.0908 37.6158 54.8424 37.6158 55.7705C37.6158 56.6978 38.3631 57.4502 39.284 57.4502H41.7223C42.6441 57.4502 43.3905 56.6978 43.3905 55.7705C43.3905 54.8424 42.6441 54.0908 41.7223 54.0908ZM47.297 40.5335C47.6232 40.8611 48.0502 41.0258 48.4772 41.0258C48.9042 41.0258 49.3312 40.8611 49.6565 40.5335C50.3081 39.8775 50.3081 38.8137 49.6565 38.1577L47.9341 36.4234C47.2826 35.7673 46.2261 35.7673 45.5746 36.4234C44.9231 37.0794 44.9231 38.1432 45.5746 38.7992L47.297 40.5335ZM71.2649 41.7048L67.8964 51.6279C69.1384 52.5774 69.9433 54.0814 69.9433 55.7705C69.9433 58.6318 67.6312 60.9598 64.7896 60.9598C61.9438 60.9598 59.6292 58.6318 59.6292 55.7705C59.6292 52.9263 61.9108 50.6093 64.7278 50.5761L68.1073 40.618C68.4056 39.7402 69.3545 39.2718 70.2262 39.5721C71.0972 39.8715 71.5632 40.827 71.2649 41.7048ZM66.6061 55.7705C66.6061 54.7579 65.791 53.9347 64.7888 53.9347C63.7831 53.9347 62.9656 54.7579 62.9656 55.7705C62.9656 56.7789 63.7831 57.5995 64.7888 57.5995C65.791 57.5995 66.6061 56.7789 66.6061 55.7705ZM122 71.1278C122 72.6113 121.879 74.0999 121.64 75.551C121.506 76.3615 120.81 76.9569 119.994 76.9569H116.081C115.615 78.6486 114.949 80.266 114.09 81.7896L116.857 84.5758C117.434 85.1568 117.509 86.0721 117.034 86.741C115.319 89.1586 113.23 91.264 110.827 92.9992C110.163 93.4778 109.253 93.4027 108.675 92.8218L105.907 90.0339C104.387 90.8998 102.779 91.572 101.101 92.0403V95.979C101.101 96.8006 100.512 97.5009 99.707 97.6366C98.2727 97.8772 96.7934 97.9991 95.3125 97.9991C93.8383 97.9991 92.3599 97.8772 90.9188 97.6366C90.1139 97.5026 89.5234 96.8014 89.5234 95.979V92.0412C88.7109 91.8134 87.9154 91.5379 87.1376 91.2171C80.4556 95.4962 72.7501 97.7543 64.7888 97.7543C49.0652 97.7543 35.3478 88.9445 28.2464 75.9699H11.1249C10.2031 75.9699 9.45585 75.2183 9.45585 74.2902C9.45585 73.3629 10.2031 72.6104 11.1249 72.6104H26.5985C25.8589 70.9154 25.2252 69.1631 24.7101 67.3597H8.53746C7.61568 67.3597 6.86928 66.6081 6.86928 65.68C6.86928 64.7527 7.61568 64.0002 8.53746 64.0002H23.9001C23.5596 62.2847 23.3249 60.5324 23.1995 58.7495H1.66818C0.746403 58.7495 0 57.9979 0 57.0698C0 56.1425 0.746403 55.39 1.66818 55.39H23.0987C23.1139 53.6139 23.2393 51.8642 23.4689 50.147H8.53746C7.61568 50.147 6.86928 49.3946 6.86928 48.4664C6.86928 47.5391 7.61568 46.7867 8.53746 46.7867H24.0577C24.4474 44.9918 24.9507 43.2387 25.5615 41.5368H11.1249C10.2031 41.5368 9.45585 40.7843 9.45585 39.8562C9.45585 38.9289 10.2031 38.1765 11.1249 38.1765H26.9357C29.4062 32.808 32.9697 28.0495 37.3379 24.1935L33.5254 18.918L30.472 21.1574C30.1755 21.3749 29.8324 21.4799 29.4918 21.4799C28.9767 21.4799 28.4684 21.2401 28.1413 20.7889C27.5991 20.039 27.7626 18.988 28.5082 18.442L37.3091 11.9876C38.0538 11.4416 39.0976 11.6062 39.6398 12.3561C40.1821 13.1068 40.0185 14.157 39.2738 14.7029L36.223 16.9406L39.9347 22.077C45.2569 18.0846 51.5526 15.3393 58.3922 14.2747V10.3718H53.9477C53.0268 10.3718 52.2795 9.6194 52.2795 8.6921V1.67973C52.2795 0.751569 53.0268 0 53.9477 0H75.6231C76.5448 0 77.2921 0.752422 77.2921 1.67973V8.6921C77.2921 9.62025 76.5448 10.3718 75.6231 10.3718H71.1853V14.2738C89.825 17.1701 104.512 32.5231 106.301 51.8173L108.669 49.4338C109.246 48.8528 110.155 48.7778 110.818 49.2546C113.231 50.9915 115.322 53.0952 117.034 55.5078C117.509 56.1757 117.434 57.0919 116.857 57.672L114.089 60.4599C114.949 61.9895 115.616 63.6095 116.082 65.2986H119.994C120.81 65.2986 121.505 65.8932 121.64 66.7028C121.879 68.1479 122 69.6366 122 71.1278ZM55.6168 7.01152H73.9557V3.35945H55.6168V7.01152ZM61.7295 13.8925C62.7393 13.8191 63.7603 13.779 64.7888 13.779C65.8173 13.779 66.8382 13.8174 67.8489 13.8917V10.3718H61.7295V13.8925ZM64.7888 94.3949C69.479 94.3949 74.0718 93.5409 78.3833 91.8945C76.9862 90.7402 75.7137 89.4495 74.5759 88.0351C71.4149 89.0051 68.1285 89.4981 64.7888 89.4981C46.3159 89.4981 31.2871 74.3678 31.2871 55.7697C31.2871 37.169 46.3159 22.0361 64.7888 22.0361C72.0198 22.0361 78.9052 24.3189 84.7019 28.639C90.058 32.6306 94.0459 38.0169 96.2936 44.2692C97.4289 44.3127 98.5735 44.4279 99.707 44.6181C100.512 44.7529 101.102 45.4541 101.102 46.2757V50.2075C101.687 50.3713 102.264 50.5616 102.832 50.774C100.39 31.699 84.1902 17.1394 64.7888 17.1394C43.6379 17.1394 26.4299 34.469 26.4299 55.7697C26.4299 77.0678 43.6379 94.3949 64.7888 94.3949ZM73.5906 55.5078C75.3028 53.0952 77.3946 50.9915 79.8066 49.2546C80.47 48.7769 81.3799 48.8528 81.9569 49.4338L84.718 52.2149C86.2379 51.349 87.8459 50.6767 89.5243 50.2075V46.2757C89.5243 45.4541 90.1139 44.7529 90.9197 44.6181C91.533 44.5157 92.1481 44.4398 92.7615 44.3793C88.1814 32.9394 77.2023 25.3955 64.7888 25.3955C48.1553 25.3955 34.6234 39.0219 34.6234 55.7697C34.6234 72.5149 48.1553 86.1378 64.7888 86.1378C67.7829 86.1378 70.7287 85.6976 73.5609 84.8335C73.6211 84.7422 73.6888 84.6552 73.7676 84.5758L76.5355 81.7896C75.6773 80.2652 75.0105 78.6477 74.5437 76.9561H70.6312C69.8153 76.9561 69.1189 76.3615 68.9859 75.551C68.747 74.0999 68.6258 72.6113 68.6258 71.1278C68.6258 69.6366 68.747 68.1479 68.9859 66.7028C69.1198 65.8924 69.8162 65.2986 70.6312 65.2986H74.5428C75.0088 63.6087 75.6764 61.9895 76.5364 60.4599L73.7676 57.672C73.1915 57.0911 73.1161 56.1757 73.5906 55.5078ZM118.663 71.1278C118.663 70.3003 118.62 69.4745 118.537 68.6589H114.772C113.984 68.6589 113.302 68.1027 113.14 67.3247C112.677 65.1118 111.818 63.0252 110.585 61.1228C110.154 60.4574 110.246 59.5787 110.803 59.0174L113.468 56.3344C112.438 55.0539 111.278 53.8878 109.998 52.8461L107.34 55.524C106.782 56.0853 105.91 56.1766 105.249 55.7424C103.359 54.502 101.286 53.6361 99.0894 53.1703C98.3176 53.0065 97.7644 52.3206 97.7644 51.5264V47.7413C96.1267 47.5655 94.5102 47.5655 92.8606 47.7421V51.5264C92.8606 52.3206 92.3083 53.0065 91.5364 53.1703C89.3387 53.6361 87.2656 54.502 85.3763 55.7424C84.7154 56.1774 83.8428 56.0853 83.2853 55.524L80.6267 52.8461C79.3483 53.8869 78.1876 55.0539 77.1574 56.3344L79.8219 59.0174C80.3802 59.5787 80.4709 60.4574 80.0396 61.1228C78.8078 63.0252 77.9478 65.1118 77.4853 67.3247C77.3226 68.1027 76.6414 68.6589 75.8527 68.6589H72.0893C72.0046 69.4745 71.9622 70.3003 71.9622 71.1278C71.9622 71.9527 72.0054 72.7785 72.0893 73.5966H75.8527C76.6414 73.5966 77.3226 74.1528 77.4853 74.9291C77.9504 77.1489 78.8095 79.2329 80.0388 81.1242C80.4709 81.7896 80.3811 82.6692 79.8219 83.2314L77.1574 85.9152C78.1893 87.1991 79.35 88.3687 80.6259 89.4077L83.2845 86.7265C83.842 86.1634 84.7154 86.0713 85.3763 86.5064C86.093 86.9773 86.8369 87.3936 87.6028 87.7544C87.6248 87.7638 87.6468 87.774 87.668 87.7834C88.9024 88.3593 90.1961 88.7943 91.5364 89.0784C92.3083 89.2422 92.8606 89.9281 92.8606 90.7223V94.5117C94.4882 94.6823 96.1479 94.6823 97.7644 94.5126V90.7223C97.7644 89.9281 98.3176 89.2422 99.0894 89.0784C101.287 88.6126 103.359 87.7476 105.249 86.5064C105.91 86.0713 106.782 86.1634 107.34 86.7256L110.003 89.4077C111.278 88.3669 112.437 87.1982 113.468 85.9152L110.803 83.2322C110.244 82.6692 110.154 81.7896 110.587 81.1242C111.816 79.2329 112.675 77.1489 113.14 74.93C113.302 74.1528 113.984 73.5966 114.772 73.5966H118.536C118.62 72.7785 118.663 71.9527 118.663 71.1278ZM109.024 71.1278C109.024 78.7407 102.873 84.9341 95.3125 84.9341C87.7519 84.9341 81.6011 78.7407 81.6011 71.1278C81.6011 63.5148 87.7519 57.3214 95.3125 57.3214C102.873 57.3214 109.024 63.5148 109.024 71.1278ZM105.688 71.1278C105.688 65.3677 101.034 60.6809 95.3125 60.6809C89.5921 60.6809 84.9374 65.3669 84.9374 71.1278C84.9374 76.8887 89.5921 81.5747 95.3125 81.5747C101.034 81.5747 105.688 76.8878 105.688 71.1278Z" fill="#8AC028"/>
</g>
</svg>
