<svg viewBox="0 0 37 48" fill="none" xmlns="http://www.w3.org/2000/svg">
<path d="M30.5122 48.0015H18.8556C18.4769 48.0015 18.1699 47.6945 18.1699 47.3159V0.689341C18.17 0.42336 18.3239 0.181432 18.5648 0.0686308C18.8057 -0.0441702 19.0901 -0.00749192 19.2944 0.162736L27.5227 7.01958C27.6631 7.13667 27.751 7.30502 27.7668 7.48721L31.1952 47.2569C31.2117 47.4482 31.1472 47.6378 31.0174 47.7793C30.8875 47.9209 30.7043 48.0015 30.5122 48.0015ZM19.5413 46.6302H29.7648L26.4256 7.88902L19.5413 2.15328V46.6302Z" fill="#8AC028"/>
<path d="M34.0503 29.3433C33.6948 29.3429 33.3986 29.0708 33.3681 28.7166L33.1966 26.7281C33.1736 26.3566 33.4512 26.0346 33.822 26.0026C34.1929 25.9706 34.5215 26.2402 34.5625 26.6102L34.734 28.5987C34.7664 28.9758 34.4871 29.3079 34.11 29.3406C34.0902 29.3425 34.0702 29.3434 34.0503 29.3433Z" fill="#8AC028"/>
<path d="M35.6564 48.0007H30.5138C30.1351 48.0007 29.8281 47.6937 29.8281 47.315C29.8281 46.9363 30.1351 46.6293 30.5138 46.6293H34.909L34.3701 40.3519C34.338 39.9748 34.6176 39.643 34.9948 39.6107C35.1763 39.5928 35.3573 39.649 35.4969 39.7664C35.6364 39.8839 35.7226 40.0527 35.736 40.2346L36.3394 47.2567C36.3557 47.448 36.2911 47.6373 36.1613 47.7787C36.0315 47.9201 35.8484 48.0006 35.6564 48.0007Z" fill="#8AC028"/>
<path d="M34.6405 36.1794C34.2853 36.1789 33.9892 35.9073 33.9583 35.5533L33.78 33.5169C33.7469 33.1396 34.026 32.8071 34.4033 32.7741C34.7805 32.7412 35.1131 33.0203 35.146 33.3975L35.3242 35.4334C35.3574 35.8108 35.0783 36.1436 34.7009 36.1766C34.6808 36.1786 34.6607 36.1795 34.6405 36.1794Z" fill="#8AC028"/>
<path d="M33.462 22.5551C33.1052 22.5565 32.807 22.2839 32.7764 21.9284L32.3759 17.2486L27.055 12.8102C26.7642 12.5675 26.7252 12.1349 26.9679 11.8441C27.2107 11.5532 27.6432 11.5143 27.9341 11.757L33.4744 16.3785C33.6149 16.4956 33.7027 16.6639 33.7185 16.8461L34.1429 21.8112C34.1754 22.1886 33.8957 22.5208 33.5183 22.5531L33.462 22.5551Z" fill="#8AC028"/>
<path d="M18.8566 47.9999H7.19994C7.0074 48.0006 6.82342 47.9204 6.69299 47.7787C6.56256 47.6371 6.4977 47.4471 6.51426 47.2553L9.94268 7.48561C9.95844 7.30341 10.0463 7.13506 10.1868 7.01797L18.415 0.161131C18.6193 -0.0108483 18.9048 -0.0485728 19.1468 0.0644537C19.3887 0.17748 19.5431 0.420692 19.5423 0.687736V47.3143C19.5423 47.6929 19.2353 47.9999 18.8566 47.9999ZM7.94734 46.6286H18.1709V2.15167L11.2866 7.88742L7.94734 46.6286Z" fill="#8AC028"/>
<path d="M7.19964 48.0012H0.685641C0.485402 48.0012 0.295125 47.9137 0.164857 47.7615C0.0345657 47.6094 -0.0226585 47.4079 0.00818328 47.21L3.4366 25.2681C3.46413 25.0914 3.5596 24.9324 3.70265 24.8251L9.02356 20.8344C9.32651 20.6072 9.7563 20.6686 9.98351 20.9716C10.2107 21.2745 10.1493 21.7043 9.84638 21.9315L4.74832 25.7549L1.48652 46.6299H7.19964C7.57833 46.6299 7.88532 46.9369 7.88532 47.3156C7.88532 47.6943 7.57833 48.0012 7.19964 48.0012Z" fill="#8AC028"/>
<path d="M7.46774 44.9288C7.1629 44.9291 6.89444 44.7282 6.80887 44.4356C6.7233 44.143 6.84117 43.8291 7.09815 43.6651L18.4874 36.3968C18.8066 36.1931 19.2306 36.2867 19.4343 36.606C19.638 36.9252 19.5444 37.3492 19.2252 37.5529L7.83595 44.8212C7.72595 44.8913 7.59822 44.9287 7.46774 44.9288Z" fill="#8AC028"/>
<path d="M8.13893 37.1394C7.83416 37.1394 7.56601 36.9383 7.48064 36.6458C7.39527 36.3534 7.51316 36.0396 7.77003 35.8757L18.4866 29.0394C18.8058 28.8357 19.2298 28.9293 19.4335 29.2485C19.6373 29.5678 19.5436 29.9917 19.2244 30.1955L8.50714 37.0297C8.39737 37.1006 8.26961 37.1387 8.13893 37.1394Z" fill="#8AC028"/>
<path d="M8.80563 29.3572C8.50079 29.3575 8.23233 29.1566 8.14676 28.864C8.0612 28.5714 8.17906 28.2575 8.43604 28.0935L18.4882 21.6823C18.8055 21.5009 19.2094 21.6002 19.4063 21.9082C19.6032 22.2162 19.5239 22.6245 19.226 22.8363L9.17315 29.2475C9.06369 29.3185 8.93612 29.3566 8.80563 29.3572Z" fill="#8AC028"/>
<path d="M9.4775 21.5821C9.17266 21.5824 8.90421 21.3815 8.81864 21.0889C8.73307 20.7963 8.85094 20.4824 9.10792 20.3184L18.4881 14.3324C18.8073 14.1286 19.2313 14.2223 19.435 14.5415C19.6387 14.8608 19.5451 15.2847 19.2259 15.4884L9.84571 21.4745C9.73572 21.5446 9.60798 21.582 9.4775 21.5821Z" fill="#8AC028"/>
<path d="M10.1474 13.7986C9.84258 13.7989 9.57413 13.5979 9.48856 13.3054C9.40299 13.0128 9.52086 12.6988 9.77784 12.5349L18.486 6.98082C18.8053 6.77708 19.2292 6.87071 19.433 7.18995C19.6367 7.50919 19.5431 7.93314 19.2238 8.13688L10.5156 13.6909C10.4058 13.7614 10.2779 13.7987 10.1474 13.7986Z" fill="#8AC028"/>
</svg>
