<svg viewBox="0 0 48 48" fill="none" xmlns="http://www.w3.org/2000/svg">
<path d="M0 45.998H48V48.0005H0V45.998Z" fill="#8AC028"/>
<path d="M1.00195 38.9883H4.00568V40.9907H1.00195V38.9883Z" fill="#8AC028"/>
<path d="M7.00781 38.9883H10.0115V40.9907H7.00781V38.9883Z" fill="#8AC028"/>
<path d="M12.998 38.9883H16.0018V40.9907H12.998V38.9883Z" fill="#8AC028"/>
<path d="M18.998 38.9883H22.0018V40.9907H18.998V38.9883Z" fill="#8AC028"/>
<path d="M24.998 38.9883H28.0018V40.9907H24.9981L24.998 38.9883Z" fill="#8AC028"/>
<path d="M30.998 38.9883H34.0018V40.9907H30.998V38.9883Z" fill="#8AC028"/>
<path d="M36.9961 38.9883H39.9998V40.9907H36.9961V38.9883Z" fill="#8AC028"/>
<path d="M42.9941 38.9883H45.9979V40.9907H42.9941V38.9883Z" fill="#8AC028"/>
<path d="M32.9941 13H39.0015V15.0024H32.9941V13Z" fill="#8AC028"/>
<path d="M8.99805 13H15.0054V15.0024H8.99805V13Z" fill="#8AC028"/>
<path d="M5.71702 34.008H0V32.0055H4.29529L8.59057 19.9908H7.00857V17.9883H11.434L5.71702 34.008Z" fill="#8AC028"/>
<path d="M37.2566 34.008H10.7441L14.1783 17.9883H17.993V19.9908H15.8003L13.2272 32.0055H34.7736L32.2004 19.9908H30.0077V17.9883H33.8224L37.2566 34.008Z" fill="#8AC028"/>
<path d="M48.0004 34.0079H42.2834L36.5664 17.9883H40.9918V19.9908H39.4099L43.7051 32.0055H48.0004V34.0079Z" fill="#8AC028"/>
<path d="M24 23.619L23.2191 22.6578C22.9287 22.2874 15.9902 13.6267 15.9902 7.85961C15.9902 3.52433 19.5847 0 24 0C28.4154 0 32.0098 3.52433 32.0098 7.85961C32.0098 13.6367 25.0713 22.2973 24.781 22.6578L24 23.619ZM24 2.00242C20.6859 2.00242 17.9926 4.62562 17.9926 7.85961C17.9926 11.8745 22.2179 17.982 24 20.3849C25.7822 17.982 30.0074 11.8744 30.0074 7.85961C30.0074 4.62572 27.3141 2.00242 24 2.00242Z" fill="#8AC028"/>
<path d="M23.9998 11.0133C22.3478 11.0133 20.9961 9.66168 20.9961 8.00959C20.9961 6.3575 22.3477 5.00586 23.9998 5.00586C25.6519 5.00586 27.0036 6.3575 27.0036 8.00959C27.0036 9.66168 25.6519 11.0133 23.9998 11.0133ZM23.9998 7.00838C23.4491 7.00838 22.9986 7.45889 22.9986 8.00959C22.9986 8.56029 23.4491 9.0108 23.9998 9.0108C24.5505 9.0108 25.001 8.56029 25.001 8.00959C25.0011 7.45899 24.5505 7.00838 23.9998 7.00838Z" fill="#8AC028"/>
</svg>
