<svg viewBox="0 0 260 92" fill="none" xmlns="http://www.w3.org/2000/svg">
  <mask id="mask0_202_1054" style="mask-type:alpha" maskUnits="userSpaceOnUse" x="0" y="0" width="260" height="92">
    <rect width="260" height="91.9351" fill="#D9D9D9" />
  </mask>
  <g mask="url(#mask0_202_1054)">
    <path fill-rule="evenodd" clip-rule="evenodd"
      d="M64.7386 78.4853H57.291V38.0643H67.2446L77.0307 67.4671L86.7796 38.0643H96.7353V78.4853H89.313L89.575 49.1409L79.8545 78.4853H74.1707L64.4223 49.1409L64.7386 78.4853ZM121.387 62.5213L116.841 49.5037L112.196 62.5213H121.387ZM109.609 70.0149L106.624 78.4853H98.8226L113.756 38.0643H120.25L134.969 78.4853H126.906L123.876 70.0149H109.609ZM145.046 56.1353H147.03C149.123 56.1353 150.736 55.6598 151.854 54.7037C152.973 53.758 153.533 52.3915 153.533 50.6117C153.533 48.7812 152.99 47.4184 151.909 46.5202C150.827 45.6184 149.177 45.1739 146.975 45.1739H145.046V56.1353ZM145.046 78.4853H137.516V38.0643H147.085C149.511 38.0643 151.431 38.208 152.828 38.4824C154.227 38.7584 155.363 39.2038 156.229 39.8204C157.807 40.9465 159.06 42.4339 159.962 44.2824C160.873 46.1372 161.324 48.1192 161.324 50.2225C161.324 54.0887 160.107 57.1864 157.681 59.4975C155.246 61.8092 151.971 62.9658 147.849 62.9658H145.046V78.4853ZM163.919 65.942L170.79 65.911V66.5012C170.79 68.1953 171.214 69.5607 172.061 70.585C172.901 71.6165 174.027 72.1302 175.435 72.1302C176.948 72.1302 178.147 71.6537 179.033 70.6971C179.908 69.7493 180.349 68.4527 180.349 66.8211C180.349 64.2165 178.572 62.3493 175.011 61.2226C174.56 61.0722 174.189 60.9472 173.928 60.8624C170.934 59.8779 168.715 58.4851 167.272 56.6856C165.829 54.8748 165.108 52.591 165.108 49.8329C165.108 46.0437 166.108 43.0034 168.103 40.6995C170.105 38.4069 172.765 37.2617 176.091 37.2617C179.214 37.2617 181.692 38.2845 183.54 40.332C185.389 42.3672 186.427 45.2287 186.635 48.915H179.817V48.5822C179.817 47.2866 179.448 46.2432 178.707 45.4463C177.968 44.6504 177.004 44.2519 175.803 44.2519C174.568 44.2519 173.603 44.6602 172.892 45.4757C172.179 46.2918 171.817 47.4008 171.817 48.8013C171.817 49.3972 171.889 49.9207 172.043 50.374C172.187 50.8287 172.423 51.237 172.737 51.607C173.468 52.4417 175.011 53.2081 177.391 53.9187C178.446 54.2107 179.257 54.4587 179.826 54.667C182.468 55.603 184.416 56.9601 185.679 58.7213C186.932 60.4733 187.563 62.7301 187.563 65.4671C187.563 69.6268 186.465 72.9721 184.262 75.5013C182.062 78.0305 179.132 79.292 175.487 79.292C172.052 79.292 169.283 78.0693 167.163 75.6253C165.054 73.1886 163.972 69.9576 163.919 65.942ZM200.709 58.419L212.334 38.0643H220.702L208.365 58.1348L220.702 78.4853H212.334L200.709 58.419ZM200.6 78.4853H193.07V38.0648H200.6V78.4853ZM228.346 57.9177C228.346 59.6598 228.616 61.2795 229.166 62.7751C229.707 64.2728 230.519 65.6485 231.592 66.8862C232.773 68.2351 234.117 69.2764 235.614 70.0041C237.111 70.7364 238.663 71.1049 240.259 71.1049C243.63 71.1049 246.454 69.846 248.736 67.3255C251.017 64.8139 252.152 61.6764 252.152 57.9177C252.152 54.4665 251.008 51.5316 248.709 49.0949C246.409 46.6597 243.648 45.4463 240.421 45.4463C237.057 45.4463 234.208 46.6597 231.862 49.0861C229.518 51.5114 228.346 54.4587 228.346 57.9177ZM220.445 58.189C220.445 61.0226 220.906 63.6852 221.835 66.1777C222.754 68.6615 224.117 70.9049 225.911 72.9039C227.785 75.0165 229.923 76.6098 232.33 77.6786C234.748 78.752 237.39 79.292 240.259 79.292C242.936 79.292 245.507 78.7421 247.96 77.6429C250.421 76.5339 252.577 74.9602 254.426 72.9039C256.257 70.9452 257.647 68.6966 258.584 66.1601C259.529 63.6273 260 60.9084 260 58.0283C260 55.2525 259.494 52.5998 258.495 50.0897C257.492 47.5698 256.031 45.3047 254.112 43.2866C252.243 41.3449 250.125 39.8473 247.752 38.8137C245.381 37.7801 242.919 37.2617 240.366 37.2617C236.966 37.2617 233.828 38.0566 230.962 39.639C228.093 41.222 225.704 43.4576 223.801 46.3662C222.691 48.0902 221.853 49.9383 221.293 51.9068C220.724 53.881 220.445 55.974 220.445 58.189Z"
      fill="white" />
    <path fill-rule="evenodd" clip-rule="evenodd"
      d="M57.748 84.63H58.7791V91.7593H57.748V84.63ZM63.4499 91.7593V84.63H64.5078L68.6024 90.227V84.63H69.5915V91.7593H68.5337L64.4391 86.1577V91.7593H63.4499ZM73.8381 89.4683L74.8102 89.3908C74.8557 89.7479 74.9627 90.0404 75.1322 90.2683C75.3001 90.4972 75.5616 90.6828 75.9162 90.8233C76.2696 90.9644 76.6686 91.0342 77.1115 91.0342C77.5053 91.0342 77.8526 90.981 78.1539 90.8745C78.4547 90.7665 78.68 90.6208 78.8268 90.4347C78.9735 90.2482 79.048 90.045 79.048 89.8233C79.048 89.6001 78.9771 89.4052 78.8335 89.2378C78.6919 89.0709 78.4578 88.9314 78.1327 88.8182C77.9224 88.7432 77.4619 88.6269 76.7446 88.4698C76.0303 88.3122 75.5275 88.1644 75.2397 88.0249C74.8681 87.8466 74.5911 87.6244 74.4076 87.3608C74.2257 87.0972 74.1353 86.8016 74.1353 86.4729C74.1353 86.1143 74.2464 85.7773 74.4686 85.4657C74.6918 85.1515 75.0185 84.9148 75.4479 84.7509C75.8779 84.5907 76.3528 84.5096 76.8774 84.5096C77.4562 84.5096 77.9647 84.5938 78.4076 84.7649C78.8479 84.9344 79.1875 85.185 79.4263 85.5148C79.6614 85.8455 79.7901 86.2202 79.8087 86.6388L78.819 86.7065C78.7648 86.2564 78.5854 85.9153 78.2789 85.6859C77.9715 85.4559 77.5198 85.3406 76.9208 85.3406C76.297 85.3406 75.8438 85.445 75.5559 85.6543C75.2717 85.8631 75.128 86.1158 75.128 86.4088C75.128 86.6667 75.2293 86.8781 75.4309 87.0419C75.6304 87.2083 76.1472 87.3773 76.987 87.5499C77.8252 87.7246 78.3994 87.8755 78.7126 88.0052C79.1663 88.1975 79.5017 88.4399 79.7182 88.7313C79.9337 89.0254 80.0407 89.3639 80.0407 89.7458C80.0407 90.1257 79.9234 90.4828 79.6846 90.8182C79.4474 91.1536 79.1058 91.4135 78.6614 91.6016C78.2169 91.7877 77.7156 91.8797 77.1611 91.8797C76.4547 91.8797 75.8629 91.7877 75.388 91.5985C74.9104 91.4104 74.5368 91.1283 74.2645 90.7505C73.9937 90.3737 73.8505 89.9443 73.8381 89.4683ZM84.3141 91.7593V84.63H87.2547C87.771 84.63 88.1669 84.6538 88.4392 84.6977C88.8222 84.7561 89.1436 84.8672 89.4036 85.0316C89.6599 85.1949 89.8702 85.4249 90.0274 85.7194C90.1855 86.0145 90.2635 86.338 90.2635 86.692C90.2635 87.2977 90.0527 87.8125 89.6315 88.2326C89.2087 88.6507 88.447 88.8616 87.3447 88.8616H85.3446V91.7593H84.3141ZM85.3446 88.0202H87.3622C88.0279 88.0202 88.5013 87.9065 88.7803 87.6797C89.0599 87.4523 89.1995 87.1334 89.1995 86.722C89.1995 86.4233 89.1178 86.167 88.9529 85.9546C88.7876 85.7422 88.5721 85.6031 88.3018 85.5354C88.1271 85.4931 87.8072 85.4714 87.34 85.4714H85.3446V88.0202ZM94.6166 84.63H95.6476V91.7593H94.6166V84.63ZM100.345 91.7593V84.63H103.801C104.497 84.63 105.024 84.6951 105.385 84.8228C105.746 84.951 106.036 85.1763 106.253 85.5003C106.469 85.8259 106.576 86.184 106.576 86.5758C106.576 87.0827 106.398 87.5076 106.038 87.8538C105.682 88.2011 105.127 88.4213 104.379 88.5158C104.654 88.6357 104.861 88.7531 105.003 88.8714C105.303 89.1241 105.589 89.4404 105.86 89.8187L107.215 91.7593H105.917L104.886 90.2755C104.585 89.8492 104.336 89.5205 104.14 89.2941C103.946 89.0673 103.773 88.9076 103.618 88.8182C103.464 88.7267 103.308 88.6636 103.147 88.6269C103.03 88.6058 102.84 88.5939 102.573 88.5939H101.376V91.7593H100.345ZM101.376 87.7768H103.594C104.065 87.7768 104.435 87.7324 104.699 87.643C104.966 87.5535 105.168 87.4109 105.306 87.2156C105.443 87.0197 105.512 86.8068 105.512 86.5758C105.512 86.2388 105.38 85.9618 105.112 85.7437C104.845 85.5267 104.422 85.4181 103.844 85.4181H101.376V87.7768ZM111.232 84.63H112.264V91.7593H111.232V84.63ZM116.934 91.7593V84.63H117.992L122.087 90.227V84.63H123.076V91.7593H122.017L117.923 86.1577V91.7593H116.934ZM131.319 88.9624V88.1272L134.62 88.122V90.7665C134.115 91.137 133.592 91.4135 133.054 91.6016C132.514 91.7877 131.96 91.8797 131.394 91.8797C130.629 91.8797 129.931 91.7314 129.307 91.4306C128.681 91.1324 128.209 90.6978 127.889 90.1308C127.57 89.5634 127.411 88.9293 127.411 88.2285C127.411 87.5344 127.57 86.8879 127.887 86.2874C128.204 85.6838 128.661 85.2383 129.256 84.9458C129.851 84.6548 130.537 84.5096 131.315 84.5096C131.876 84.5096 132.387 84.5918 132.843 84.7597C133.298 84.9256 133.656 85.1582 133.913 85.4569C134.173 85.7556 134.369 86.1442 134.505 86.6238L133.573 86.8579C133.456 86.4951 133.311 86.2083 133.138 86.0016C132.964 85.7944 132.716 85.6279 132.392 85.5029C132.071 85.3789 131.712 85.3163 131.319 85.3163C130.848 85.3163 130.44 85.382 130.096 85.5137C129.752 85.6445 129.475 85.8166 129.264 86.0316C129.054 86.245 128.89 86.4791 128.772 86.737C128.574 87.1768 128.474 87.6549 128.474 88.1706C128.474 88.8063 128.594 89.3375 128.833 89.7655C129.073 90.1939 129.421 90.5117 129.879 90.7189C130.336 90.9257 130.82 91.0311 131.334 91.0311C131.783 91.0311 132.218 90.951 132.643 90.7939C133.069 90.6378 133.391 90.4704 133.61 90.29V88.9624H131.319ZM148.082 91.7593V84.63H150.765C151.372 84.63 151.835 84.6657 152.153 84.7334C152.599 84.8259 152.981 84.9975 153.297 85.2435C153.707 85.5623 154.016 85.9665 154.219 86.461C154.424 86.9556 154.526 87.52 154.526 88.1556C154.526 88.6967 154.457 89.1758 154.317 89.5954C154.179 90.0135 154.003 90.3598 153.786 90.6347C153.569 90.9081 153.333 91.1236 153.075 91.2797C152.819 91.4373 152.509 91.5567 152.146 91.6383C151.781 91.7195 151.364 91.7593 150.895 91.7593H148.082ZM149.112 90.9179H150.777C151.29 90.9179 151.695 90.8745 151.987 90.7872C152.279 90.6988 152.511 90.5768 152.686 90.4171C152.93 90.1939 153.121 89.8921 153.257 89.5158C153.393 89.137 153.462 88.6802 153.462 88.1412C153.462 87.3949 153.328 86.8238 153.061 86.4233C152.792 86.0218 152.468 85.7535 152.084 85.6181C151.809 85.5199 151.362 85.4714 150.751 85.4714H149.112V90.9179ZM158.83 91.7593V84.63H164.466V85.4714H159.86V87.6549H164.173V88.4915H159.86V90.9179H164.647V91.7593H158.83ZM171.161 91.7593L168.142 84.63H169.26L171.284 89.8089C171.448 90.2238 171.585 90.6135 171.693 90.9758C171.815 90.5872 171.955 90.1996 172.114 89.8089L174.22 84.63H175.272L172.219 91.7593H171.161ZM179.083 91.7593V84.63H184.718V85.4714H180.113V87.6549H184.426V88.4915H180.113V90.9179H184.899V91.7593H179.083ZM189.143 91.7593V84.63H190.177V90.9179H194.014V91.7593H189.143ZM197.793 88.2869C197.793 87.104 198.139 86.1768 198.835 85.5081C199.53 84.8398 200.426 84.5039 201.526 84.5039C202.244 84.5039 202.894 84.6615 203.471 84.9758C204.049 85.29 204.49 85.7293 204.793 86.2921C205.096 86.8528 205.246 87.4915 205.246 88.2042C205.246 88.9272 205.088 89.5742 204.769 90.1443C204.449 90.7153 203.998 91.1469 203.413 91.4404C202.827 91.7345 202.197 91.8797 201.52 91.8797C200.785 91.8797 200.131 91.7195 199.553 91.3939C198.974 91.0704 198.537 90.6275 198.24 90.0668C197.941 89.5065 197.793 88.9122 197.793 88.2869ZM198.857 88.3024C198.857 89.1613 199.108 89.8373 199.613 90.3324C200.12 90.8259 200.753 91.074 201.515 91.074C202.291 91.074 202.931 90.8249 203.432 90.3257C203.933 89.8254 204.185 89.1174 204.185 88.199C204.185 87.6197 204.075 87.1138 203.862 86.6802C203.648 86.2471 203.334 85.9111 202.921 85.6729C202.508 85.4352 202.044 85.3163 201.532 85.3163C200.8 85.3163 200.172 85.5453 199.646 86.0047C199.119 86.4621 198.857 87.23 198.857 88.3024ZM209.44 91.7593V84.63H212.38C212.897 84.63 213.293 84.6538 213.565 84.6977C213.949 84.7561 214.27 84.8672 214.529 85.0316C214.786 85.1949 214.996 85.4249 215.153 85.7194C215.312 86.0145 215.389 86.338 215.389 86.692C215.389 87.2977 215.179 87.8125 214.758 88.2326C214.334 88.6507 213.573 88.8616 212.471 88.8616H210.471V91.7593H209.44ZM210.471 88.0202H212.487C213.152 88.0202 213.627 87.9065 213.907 87.6797C214.186 87.4523 214.326 87.1334 214.326 86.722C214.326 86.4233 214.244 86.167 214.078 85.9546C213.914 85.7422 213.698 85.6031 213.427 85.5354C213.253 85.4931 212.933 85.4714 212.466 85.4714H210.471V88.0202ZM219.534 91.7593V84.63H221.088L222.932 89.6781C223.101 90.1474 223.226 90.4998 223.303 90.7339C223.392 90.475 223.53 90.0931 223.719 89.5903L225.585 84.63H226.973V91.7593H225.979V85.7923L223.714 91.7593H222.782L220.529 85.6905V91.7593H219.534ZM231.523 91.7593V84.63H237.157V85.4714H232.553V87.6549H236.865V88.4915H232.553V90.9179H237.339V91.7593H231.523ZM241.616 91.7593V84.63H242.674L246.769 90.227V84.63H247.757V91.7593H246.699L242.605 86.1577V91.7593H241.616ZM254.338 91.7593V85.4714H251.77V84.63H257.947V85.4714H255.368V91.7593H254.338Z"
      fill="#111111" />
    <path
      d="M57.748 84.63H58.7791V91.7593H57.748V84.63ZM63.4499 91.7593V84.63H64.5078L68.6024 90.227V84.63H69.5915V91.7593H68.5337L64.4391 86.1577V91.7593H63.4499ZM73.8381 89.4683L74.8102 89.3908C74.8557 89.7479 74.9627 90.0404 75.1322 90.2683C75.3001 90.4972 75.5616 90.6828 75.9162 90.8233C76.2696 90.9644 76.6686 91.0342 77.1115 91.0342C77.5053 91.0342 77.8526 90.981 78.1539 90.8745C78.4547 90.7665 78.68 90.6208 78.8268 90.4347C78.9735 90.2482 79.048 90.045 79.048 89.8233C79.048 89.6001 78.9771 89.4052 78.8335 89.2378C78.6919 89.0709 78.4578 88.9314 78.1327 88.8182C77.9224 88.7432 77.4619 88.6269 76.7446 88.4698C76.0303 88.3122 75.5275 88.1644 75.2397 88.0249C74.8681 87.8466 74.5911 87.6244 74.4076 87.3608C74.2257 87.0972 74.1353 86.8016 74.1353 86.4729C74.1353 86.1143 74.2464 85.7773 74.4686 85.4657C74.6918 85.1515 75.0185 84.9148 75.4479 84.7509C75.8779 84.5907 76.3528 84.5096 76.8774 84.5096C77.4562 84.5096 77.9647 84.5938 78.4076 84.7649C78.8479 84.9344 79.1875 85.185 79.4263 85.5148C79.6614 85.8455 79.7901 86.2202 79.8087 86.6388L78.819 86.7065C78.7648 86.2564 78.5854 85.9153 78.2789 85.6859C77.9715 85.4559 77.5198 85.3406 76.9208 85.3406C76.297 85.3406 75.8438 85.445 75.5559 85.6543C75.2717 85.8631 75.128 86.1158 75.128 86.4088C75.128 86.6667 75.2293 86.8781 75.4309 87.0419C75.6304 87.2083 76.1472 87.3773 76.987 87.5499C77.8252 87.7246 78.3994 87.8755 78.7126 88.0052C79.1663 88.1975 79.5017 88.4399 79.7182 88.7313C79.9337 89.0254 80.0407 89.3639 80.0407 89.7458C80.0407 90.1257 79.9234 90.4828 79.6846 90.8182C79.4474 91.1536 79.1058 91.4135 78.6614 91.6016C78.2169 91.7877 77.7156 91.8797 77.1611 91.8797C76.4547 91.8797 75.8629 91.7877 75.388 91.5985C74.9104 91.4104 74.5368 91.1283 74.2645 90.7505C73.9937 90.3737 73.8505 89.9443 73.8381 89.4683ZM84.3141 91.7593V84.63H87.2547C87.771 84.63 88.1669 84.6538 88.4392 84.6977C88.8222 84.7561 89.1436 84.8672 89.4036 85.0316C89.6599 85.1949 89.8702 85.4249 90.0274 85.7194C90.1855 86.0145 90.2635 86.338 90.2635 86.692C90.2635 87.2977 90.0527 87.8125 89.6315 88.2326C89.2087 88.6507 88.447 88.8616 87.3447 88.8616H85.3446V91.7593H84.3141ZM85.3446 88.0202H87.3622C88.0279 88.0202 88.5013 87.9065 88.7803 87.6797C89.0599 87.4523 89.1995 87.1334 89.1995 86.722C89.1995 86.4233 89.1178 86.167 88.9529 85.9546C88.7876 85.7422 88.5721 85.6031 88.3018 85.5354C88.1271 85.4931 87.8072 85.4714 87.34 85.4714H85.3446V88.0202ZM94.6166 84.63H95.6476V91.7593H94.6166V84.63ZM100.345 91.7593V84.63H103.801C104.497 84.63 105.024 84.6951 105.385 84.8228C105.746 84.951 106.036 85.1763 106.253 85.5003C106.469 85.8259 106.576 86.184 106.576 86.5758C106.576 87.0827 106.398 87.5076 106.038 87.8538C105.682 88.2011 105.127 88.4213 104.379 88.5158C104.654 88.6357 104.861 88.7531 105.003 88.8714C105.303 89.1241 105.589 89.4404 105.86 89.8187L107.215 91.7593H105.917L104.886 90.2755C104.585 89.8492 104.336 89.5205 104.14 89.2941C103.946 89.0673 103.773 88.9076 103.618 88.8182C103.464 88.7267 103.308 88.6636 103.147 88.6269C103.03 88.6058 102.84 88.5939 102.573 88.5939H101.376V91.7593H100.345ZM101.376 87.7768H103.594C104.065 87.7768 104.435 87.7324 104.699 87.643C104.966 87.5535 105.168 87.4109 105.306 87.2156C105.443 87.0197 105.512 86.8068 105.512 86.5758C105.512 86.2388 105.38 85.9618 105.112 85.7437C104.845 85.5267 104.422 85.4181 103.844 85.4181H101.376V87.7768ZM111.232 84.63H112.264V91.7593H111.232V84.63ZM116.934 91.7593V84.63H117.992L122.087 90.227V84.63H123.076V91.7593H122.017L117.923 86.1577V91.7593H116.934ZM131.319 88.9624V88.1272L134.62 88.122V90.7665C134.115 91.137 133.592 91.4135 133.054 91.6016C132.514 91.7877 131.96 91.8797 131.394 91.8797C130.629 91.8797 129.931 91.7314 129.307 91.4306C128.681 91.1324 128.209 90.6978 127.889 90.1308C127.57 89.5634 127.411 88.9293 127.411 88.2285C127.411 87.5344 127.57 86.8879 127.887 86.2874C128.204 85.6838 128.661 85.2383 129.256 84.9458C129.851 84.6548 130.537 84.5096 131.315 84.5096C131.876 84.5096 132.387 84.5918 132.843 84.7597C133.298 84.9256 133.656 85.1582 133.913 85.4569C134.173 85.7556 134.369 86.1442 134.505 86.6238L133.573 86.8579C133.456 86.4951 133.311 86.2083 133.138 86.0016C132.964 85.7944 132.716 85.6279 132.392 85.5029C132.071 85.3789 131.712 85.3163 131.319 85.3163C130.848 85.3163 130.44 85.382 130.096 85.5137C129.752 85.6445 129.475 85.8166 129.264 86.0316C129.054 86.245 128.89 86.4791 128.772 86.737C128.574 87.1768 128.474 87.6549 128.474 88.1706C128.474 88.8063 128.594 89.3375 128.833 89.7655C129.073 90.1939 129.421 90.5117 129.879 90.7189C130.336 90.9257 130.82 91.0311 131.334 91.0311C131.783 91.0311 132.218 90.951 132.643 90.7939C133.069 90.6378 133.391 90.4704 133.61 90.29V88.9624H131.319ZM148.082 91.7593V84.63H150.765C151.372 84.63 151.835 84.6657 152.153 84.7334C152.599 84.8259 152.981 84.9975 153.297 85.2435C153.707 85.5623 154.016 85.9665 154.219 86.461C154.424 86.9556 154.526 87.52 154.526 88.1556C154.526 88.6967 154.457 89.1758 154.317 89.5954C154.179 90.0135 154.003 90.3598 153.786 90.6347C153.569 90.9081 153.333 91.1236 153.075 91.2797C152.819 91.4373 152.509 91.5567 152.146 91.6383C151.781 91.7195 151.364 91.7593 150.895 91.7593H148.082ZM149.112 90.9179H150.777C151.29 90.9179 151.695 90.8745 151.987 90.7872C152.279 90.6988 152.511 90.5768 152.686 90.4171C152.93 90.1939 153.121 89.8921 153.257 89.5158C153.393 89.137 153.462 88.6802 153.462 88.1412C153.462 87.3949 153.328 86.8238 153.061 86.4233C152.792 86.0218 152.468 85.7535 152.084 85.6181C151.809 85.5199 151.362 85.4714 150.751 85.4714H149.112V90.9179ZM158.83 91.7593V84.63H164.466V85.4714H159.86V87.6549H164.173V88.4915H159.86V90.9179H164.647V91.7593H158.83ZM171.161 91.7593L168.142 84.63H169.26L171.284 89.8089C171.448 90.2238 171.585 90.6135 171.693 90.9758C171.815 90.5872 171.955 90.1996 172.114 89.8089L174.22 84.63H175.272L172.219 91.7593H171.161ZM179.083 91.7593V84.63H184.718V85.4714H180.113V87.6549H184.426V88.4915H180.113V90.9179H184.899V91.7593H179.083ZM189.143 91.7593V84.63H190.177V90.9179H194.014V91.7593H189.143ZM197.793 88.2869C197.793 87.104 198.139 86.1768 198.835 85.5081C199.53 84.8398 200.426 84.5039 201.526 84.5039C202.244 84.5039 202.894 84.6615 203.471 84.9758C204.049 85.29 204.49 85.7293 204.793 86.2921C205.096 86.8528 205.246 87.4915 205.246 88.2042C205.246 88.9272 205.088 89.5742 204.769 90.1443C204.449 90.7153 203.998 91.1469 203.413 91.4404C202.827 91.7345 202.197 91.8797 201.52 91.8797C200.785 91.8797 200.131 91.7195 199.553 91.3939C198.974 91.0704 198.537 90.6275 198.24 90.0668C197.941 89.5065 197.793 88.9122 197.793 88.2869ZM198.857 88.3024C198.857 89.1613 199.108 89.8373 199.613 90.3324C200.12 90.8259 200.753 91.074 201.515 91.074C202.291 91.074 202.931 90.8249 203.432 90.3257C203.933 89.8254 204.185 89.1174 204.185 88.199C204.185 87.6197 204.075 87.1138 203.862 86.6802C203.648 86.2471 203.334 85.9111 202.921 85.6729C202.508 85.4352 202.044 85.3163 201.532 85.3163C200.8 85.3163 200.172 85.5453 199.646 86.0047C199.119 86.4621 198.857 87.23 198.857 88.3024ZM209.44 91.7593V84.63H212.38C212.897 84.63 213.293 84.6538 213.565 84.6977C213.949 84.7561 214.27 84.8672 214.529 85.0316C214.786 85.1949 214.996 85.4249 215.153 85.7194C215.312 86.0145 215.389 86.338 215.389 86.692C215.389 87.2977 215.179 87.8125 214.758 88.2326C214.334 88.6507 213.573 88.8616 212.471 88.8616H210.471V91.7593H209.44ZM210.471 88.0202H212.487C213.152 88.0202 213.627 87.9065 213.907 87.6797C214.186 87.4523 214.326 87.1334 214.326 86.722C214.326 86.4233 214.244 86.167 214.078 85.9546C213.914 85.7422 213.698 85.6031 213.427 85.5354C213.253 85.4931 212.933 85.4714 212.466 85.4714H210.471V88.0202ZM219.534 91.7593V84.63H221.088L222.932 89.6781C223.101 90.1474 223.226 90.4998 223.303 90.7339C223.392 90.475 223.53 90.0931 223.719 89.5903L225.585 84.63H226.973V91.7593H225.979V85.7923L223.714 91.7593H222.782L220.529 85.6905V91.7593H219.534ZM231.523 91.7593V84.63H237.157V85.4714H232.553V87.6549H236.865V88.4915H232.553V90.9179H237.339V91.7593H231.523ZM241.616 91.7593V84.63H242.674L246.769 90.227V84.63H247.757V91.7593H246.699L242.605 86.1577V91.7593H241.616ZM254.338 91.7593V85.4714H251.77V84.63H257.947V85.4714H255.368V91.7593H254.338Z"
      fill="white" stroke="white" stroke-width="0.216" />
    <rect y="31.0488" width="8.74374" height="60.5126" fill="white" />
    <rect x="12.8027" width="8.74374" height="91.563" fill="white" />
    <rect x="25.6055" y="7.28711" width="8.74322" height="54.1777" fill="white" />
    <rect x="25.6055" y="65.2656" width="26.2317" height="26.6136" fill="white" />
    <path fill-rule="evenodd" clip-rule="evenodd"
      d="M27.1602 91.8761V83.1179V83.1127H27.1648C27.1658 81.138 27.8568 79.3323 28.969 78.0201C30.125 76.6553 31.7395 75.8046 33.5318 75.802V75.7969H33.5375H33.5385H33.5421V75.802C35.3359 75.8031 36.953 76.6553 38.1101 78.0227C39.2187 79.3344 39.9096 81.1349 39.9117 83.108H39.9168V83.1179V91.8761H37.5199V83.1179V83.108H37.5246C37.5225 81.7225 37.0471 80.4698 36.2837 79.5664C35.5664 78.7189 34.5933 78.1902 33.5421 78.1902V78.1953H33.5385H33.5375H33.5318V78.1902C32.4816 78.1912 31.5101 78.7189 30.7938 79.5648C30.0294 80.4682 29.5535 81.7246 29.5524 83.1127H29.5576V83.1179V91.8761H27.1602Z"
      fill="#0B6BB8" />
    <path fill-rule="evenodd" clip-rule="evenodd"
      d="M47.8778 91.8761V83.1179V83.1127H47.8814C47.8814 81.7246 47.4049 80.4682 46.6405 79.5648C45.9237 78.7189 44.9527 78.1912 43.9031 78.1902V78.1953H43.8958H43.8917V78.1902C42.841 78.1902 41.8684 78.7189 41.1506 79.5664C40.3873 80.4698 39.9128 81.7225 39.9113 83.108H39.9159V83.1179V91.8761H37.5195V83.1179V83.108H37.5242C37.5257 81.1349 38.2157 79.3344 39.3258 78.0227C40.4829 76.6553 42.0984 75.8031 43.8917 75.802V75.7969H43.8958H43.9031V75.802C45.6948 75.8046 47.3093 76.6553 48.4664 78.0201C49.5775 79.3323 50.2685 81.138 50.269 83.1127H50.2742V83.1179V91.8761H47.8778Z"
      fill="#0B6BB8" />
  </g>
</svg>