<svg viewBox="0 0 57 100" fill="none" xmlns="http://www.w3.org/2000/svg">
<rect y="33.7891" width="9.51708" height="65.8647" fill="#868685"/>
<rect x="13.9336" width="9.51708" height="99.6535" fill="#B9C071"/>
<rect x="27.8672" y="7.93164" width="9.51652" height="58.9694" fill="#B94D96"/>
<mask id="mask0_45_1222" style="mask-type:alpha" maskUnits="userSpaceOnUse" x="0" y="0" width="57" height="100">
<rect width="56.418" height="100" fill="#D9D9D9"/>
</mask>
<g mask="url(#mask0_45_1222)">
<path fill-rule="evenodd" clip-rule="evenodd" d="M39.4877 86.5966C38.7115 85.6742 37.6484 85.1004 36.5066 85.1004V85.1061H36.4954V85.1004C35.3536 85.1004 34.2962 85.6742 33.5143 86.5966C32.6819 87.5809 32.1644 88.9477 32.1644 90.4551H32.17V99.9945H32.1644V100H40.8376V90.4495H40.8432C40.8376 88.9421 40.3201 87.5809 39.4877 86.5966ZM27.8672 71.0332V100H29.5602V90.4551H29.5658C29.5658 88.3065 30.3195 86.3435 31.5288 84.9148C32.7887 83.4299 34.5436 82.5019 36.4954 82.5019V82.4963H36.5066V82.5019C38.4584 82.5019 40.2189 83.4299 41.4788 84.9205C41.7151 85.2017 41.9344 85.5054 42.1425 85.826C42.3394 85.5054 42.5588 85.2017 42.8006 84.9205C44.0605 83.4299 45.8211 82.5019 47.7728 82.5019V82.4963H47.7841V82.5019C49.7358 82.5019 51.4907 83.4299 52.7506 84.9148C53.9599 86.3435 54.708 88.3065 54.7136 90.4551H54.7192V100H56.4179V71.0332H27.8672ZM52.115 90.4551C52.115 88.9477 51.5919 87.5809 50.7595 86.5966C49.9833 85.6742 48.9259 85.1004 47.7841 85.1004V85.1061H47.7728V85.1004C46.6254 85.1004 45.5679 85.6742 44.7861 86.5966C43.9593 87.5809 43.4418 88.9421 43.4362 90.4495H43.4418V100H52.115V99.9945H52.1094V90.4551H52.115Z" fill="#005CA8"/>
</g>
</svg>
